<svg xmlns="http://www.w3.org/2000/svg" viewBox="0 0 1142.15 339.75"><defs><style>.cls-1{fill:#024e28;}</style></defs><g id="Layer_2" data-name="Layer 2"><g id="Layer_1-2" data-name="Layer 1"><path d="M327.05,18.39h0q.3,0-2.11,3.75a22.09,22.09,0,0,1-3.9,5q-8.4,3.6-21.61,10.2-10.81,6-11.11,5.71-.9-.9,2.1-4.51A36.35,36.35,0,0,1,296,33q2.85-2.25,15.91-8.41t15.17-6.15"></path><path d="M453.38,27.67h0q.3,0-2.1,3.76a22,22,0,0,1-3.9,5Q439,40,425.76,46.59q-10.8,6-11.11,5.7-.9-.9,2.1-4.5a36.94,36.94,0,0,1,5.56-5.56q2.85-2.25,15.91-8.4t15.16-6.16"></path><path d="M68.77,185.16h0q.44,0-3,5.39t-5.61,7.13q-12.09,5.17-31.09,14.68-15.54,8.64-16,8.2-1.29-1.29,3-6.47a52.36,52.36,0,0,1,8-8Q28.19,202.86,47,194t21.8-8.85"></path><path d="M376.8,305.64h0q.3,0-2.11,3.75a22,22,0,0,1-3.9,4.95q-8.4,3.62-21.61,10.21-10.81,6-11.11,5.71-.9-.9,2.1-4.51a36.35,36.35,0,0,1,5.55-5.55q2.85-2.25,15.91-8.41t15.17-6.15"></path><path d="M193.09,336.36h0c.14.14-1.16.5-3.89,1.1a20.71,20.71,0,0,1-5.88.7q-8-3.2-21.16-7.58Q151,327.39,151,327c0-.79,1.46-1.33,4.39-1.59a33.67,33.67,0,0,1,7.38,0q3.39.39,16.17,5t14.16,6"></path><path d="M652.43,53.65h0a94.42,94.42,0,0,1-7.81,10.51q-17.42,6.32-52.54,21-20.12,9.6-19.81,9.6-.6-.6,2.1-4.5a25.91,25.91,0,0,1,6-6.3q4.2-3.62,23.42-12,23.12-9.91,48.64-18.32"></path><path d="M973.93.76h0c.49.53.44,1.8-.14,3.82S972.72,7.74,972.36,8L937.79,27.55q-22,12.64-31.41,20.25c-.52-.73-.76-2.21-.71-4.45.08-2,.38-3.3.91-3.8A691.67,691.67,0,0,1,973.93.76"></path><path d="M1106.68,59.61h0c-.23.24-.81.26-1.75.07a4,4,0,0,1-1.61-.53l-10.17-15a121.43,121.43,0,0,0-10.37-13.58,3.75,3.75,0,0,1,2-.49,2.77,2.77,0,0,1,1.76.28,314.18,314.18,0,0,1,20.14,29.3"></path><path d="M222.3,305h0c0,.72-.89,1.63-2.69,2.72s-2.92,1.61-3.36,1.56l-38.69-8.92q-24.76-5.52-36.84-6.27c.1-.89.93-2.15,2.47-3.77,1.44-1.45,2.51-2.18,3.23-2.18A688.62,688.62,0,0,1,222.3,305"></path><path class="cls-1" d="M1005.24.76h0q.16.89-1,5.67c-.74,3.18-1.49,5-2.24,5.29Q952.42,39.08,923.4,55.66q-55,31.4-78.36,47.25a12.76,12.76,0,0,1,1-6.9q1.57-3.95,3.18-5.15,67.11-43.68,156-90.1"></path><path d="M256.58,331.74h0c-.3.52-1.78,1.74-4.42,3.67s-4.35,2.78-5.15,2.55q-55.47-11.64-88.28-18-62.16-12.09-90.21-15.31a12.78,12.78,0,0,1,5.28-4.56q3.77-2,5.78-1.83,79.35,10.68,177,33.48"></path><path d="M775.14,121.9h0c.6,0,.4,1.15-.6,3.46s-1.6,3.45-1.8,3.45q-34.53,12.3-84.36,30.92Q604.62,191,604.32,195.46q1.8,2.4,9.3,3.6c1.61.4,2.41,1.3,2.41,2.7a9.18,9.18,0,0,1-.9,3c-.61,1.4-1.21,2.1-1.81,2.1q-2.7,0-7.5-2.41c-3.8-1.8-5.71-3.6-5.71-5.4q0-1.2,2-6.15t2.85-5.56q9.3-6.6,86-36t84.21-29.43"></path><path d="M734.14,264.73h0q.3,0-2.25,3.9a24.11,24.11,0,0,1-4.06,5.11q-8.7,3.9-22.81,10.8-11.12,6.31-11.71,6-.3-.9,2.7-4.81a48.33,48.33,0,0,1,5.7-6q2.71-2.4,16.22-8.71t16.21-6.3m4.5,9.6h0c.4,0-.25,1.31-1.95,3.91s-3.15,4.2-4.35,4.8q-8.72,4.2-22.22,10.81-11.4,6.3-11.71,6-.9-.92,2.1-4.51a30.42,30.42,0,0,1,5.86-6q3.15-2.42,16.51-8.71t15.76-6.31"></path><path d="M415.14,211.61h0a11.62,11.62,0,0,1-1.2,4.5c-.8,1.81-1.5,2.81-2.11,3q-2.1.3-28.52,9.3Q355.1,238,351.79,239.83q-.6-1.2.6-4.05t2.7-3.45q54.65-21.32,60.05-20.72m-2.4,12.61h0q-1.22,6.6-3.61,7.51-47.43,15.9-60.94,20.11,0-6,3-6.9,27.92-10.22,61.55-20.72"></path><path d="M384.78,72.67h0q.6,1.2-.6,4.35t-2.1,3.45q-74.46,24-110.18,38.43a8.1,8.1,0,0,1,3.6-9q15-6.3,54.64-19.51,37.53-12.61,54.64-17.71m-3.3,14.71h0a6,6,0,0,1-.75,4.5c-.9,1.8-1.75,2.8-2.56,3q-69.65,22.22-109.28,36.93-.3-6.3,4.51-8.11,37.23-14.4,108.08-36.32"></path><path d="M1003.23,290.17h0c-.16.48-.47,1.51-1,3.1-.16,1-.32,1.42-.47,1.42a3.49,3.49,0,0,1-1-.71,35,35,0,0,0-3.56-2.38,32.16,32.16,0,0,1-10.71,9.75,68.43,68.43,0,0,1-10.23,4.76q-3.33,1.42-3.8.48-.48-.48,3.57-2.86,7.13-4,9.75-5.71a30.28,30.28,0,0,0,8.32-7.61,15.27,15.27,0,0,0-2.85-1c-3-1.11-4.52-2.69-4.52-4.76q0-4,3.57-7.85t6.42-3.8c2.7,0,4,2.22,4,6.66a17.22,17.22,0,0,1-1.66,7.37c2.7,1.43,4,2.46,4,3.09m-6.18-8.56h0c0-2.06-.95-3.09-2.86-3.09q-4,0-4,3.33,0,1.18,6.19,4a15.21,15.21,0,0,0,.71-4.28"></path><path d="M1128,284.51h0c0,.44-.06,1.4-.1,2.87.08.85.06,1.3-.08,1.33a3.23,3.23,0,0,1-1-.39,31.4,31.4,0,0,0-3.61-1.22,28.46,28.46,0,0,1-6.93,10.83,61.76,61.76,0,0,1-7.67,6.44c-1.69,1.32-2.74,1.75-3.16,1.28q-.51-.3,2.41-3.27,5.17-5.11,7-7.14a27,27,0,0,0,5.39-8.45,13.74,13.74,0,0,0-2.67-.15c-2.84-.26-4.49-1.27-5-3a10.21,10.21,0,0,1,1.25-7.55q2.19-4.1,4.63-4.75c2.31-.62,4,1,5,4.78a15.31,15.31,0,0,1,.28,6.71c2.64.6,4,1.18,4.17,1.72m-7.27-5.92h0q-.72-2.65-3.16-2-3.46.93-2.7,3.78.27,1,6.23,2.05a13.24,13.24,0,0,0-.37-3.84"></path><path d="M757.68,31.84h0q.3,0,.24.63-.15,1.48-2.48,5c-1.54,2.35-2.52,3.51-2.92,3.47l-6.32-3.06q-6.06,9-24.16,20.76-22,14-62.75,29.17-4.39,1.66-10.35,3.77a3.24,3.24,0,0,0-.83-.69c.26-.57,1.46-1.46,3.59-2.65q30.66-16.47,42.09-21.94,37.44-17.88,49-30-14.32-7.5-13.68-13.77Q729.74,16,737.49,8T750.62.64q7.17.74,5.92,13-.52,5.07-5.12,14.56c2.47,1.46,4.55,2.68,6.26,3.66m-8.83-5.13h0a20.34,20.34,0,0,0,1.12-5,16,16,0,0,0-1-7.94c-1-2.12-2-3.23-3-3.33-1.59-.16-3.65.74-6.16,2.69s-3.83,3.43-3.93,4.43q-.24,2.38,12.94,9.17"></path><path d="M1141.71,189h0c-.2.6-.6,1.9-1.2,3.91q-.3,1.8-.9,1.8-.3,0-.9-.9a43.86,43.86,0,0,0-4.5-3q-4.51,6.9-13.51,12.3-3.32,2.12-12.91,6-4.21,1.8-4.81.6-.6-.6,4.51-3.3,9-5.42,12.31-7.51,7.2-4.8,10.5-9.61a44.79,44.79,0,0,1-9-5.1q-6.91,4.5-10.81,4.5-4.5,0-4.5-6,0-8.1,8.7-17.71,12-13.51,21.32-13.51,5.7,0,5.7,7.2,0,5.7-4.5,11.71a13.2,13.2,0,0,1,1.2,5.4,23.39,23.39,0,0,1-1.8,9.31q5.1,2.1,5.1,3.9m-6.6-29.72h0a3.17,3.17,0,0,0-2.71-1.2q-3.9,0-11.7,6.31-9.62,7.8-9.61,14.41a1.21,1.21,0,0,0,.6,1.2q1.8,3,9-.9a25.92,25.92,0,0,1,4.2-7.51q3.9-4.2,7.5-4.2a5.33,5.33,0,0,1,2.41.6q3.6-4.5.3-8.71M1133,183h0a21.86,21.86,0,0,0,.3-3.6,14.39,14.39,0,0,0-.3-3.31c-.81-1.6-1.81-2.4-3-2.4a5,5,0,0,0-3.3,1.8c-1.2,1.2-1.8,2.11-1.8,2.71s.9,1.5,2.7,2.7A43.63,43.63,0,0,0,1133,183"></path><path d="M451,287.21h0c-.2.6-.6,2-1.2,4.21q-.3,1.5-.9,1.5-.3,0-.9-.9a43.86,43.86,0,0,0-4.5-3Q439,296.22,430,301.63a122,122,0,0,1-12.91,5.7q-4.22,1.8-4.81.6-.6-.6,4.51-3.3,9-5.1,12.31-7.51,7.2-4.8,10.5-9.6c-.8-.21-2-.61-3.6-1.21q-6-1.8-6-5.7,0-5.1,4.8-10.21,4.5-4.8,8.11-4.8,5.1,0,5.1,8.41a21.76,21.76,0,0,1-2.1,9.3q5.1,2.7,5.1,3.9m-24,0h0c-.2.6-.6,2-1.2,4.21l-.9,1.5a2.46,2.46,0,0,1-1.5-.9,29.79,29.79,0,0,0-4.2-3q-4.2,7.2-13.21,12.61a88.48,88.48,0,0,1-12.91,5.7,15.43,15.43,0,0,1-3,1.2q-1.8.3-1.8-.6-.6-.6,4.5-3.3,8.4-5.1,12.31-7.51a40,40,0,0,0,10.21-9.6c-.8-.21-2-.61-3.61-1.21q-5.7-2.1-5.7-5.7,0-5.1,4.5-10.06t8.11-4.95q5.4,0,5.4,8.41a28.37,28.37,0,0,1-2.1,9.3q5.1,3,5.1,3.9m16.22-10.5h0q0-4.21-3.61-4.21c-3.4,0-5.1,1.51-5.1,4.51q0,1.5,7.81,4.8a16.15,16.15,0,0,0,.9-5.1m-24.32,0h0q0-4.21-3.3-4.21c-3.61,0-5.41,1.51-5.41,4.51q0,1.5,7.81,4.8a14.4,14.4,0,0,0,.9-5.1"></path><path d="M161.06,181.39h0q-.3,1.2-1.2,4.2-.3,1.5-.6,1.5l-1.2-.6a37.18,37.18,0,0,0-4.5-3.3A54.84,54.84,0,0,1,142,196.7q-7.06,6-10.36,5.1-2.4-.6-3.3-7.5c-.6-4.2-2.4-6.31-5.41-6.31-1.4,0-3.15,1.11-5.25,3.31s-3.25,3.2-3.45,3q-.6-.6,1.2-4.2a13.91,13.91,0,0,1,4.95-6.16q3.75-2.85,6.16-2.85,3.9.3,5.4,5.1a21.59,21.59,0,0,0,2.4,7.51q.9.9,5.71-2.7a51.41,51.41,0,0,0,9.3-9.31,18.6,18.6,0,0,0-3.6-1.2q-5.4-2.1-5.4-6.31,0-4.8,4.5-9.6t7.8-4.81q5.11,0,5.11,8.41a30.93,30.93,0,0,1-1.8,9.61q5.1,2.1,5.1,3.6m-7.8-10.51h0c0-2.8-1.21-4.2-3.61-4.2q-5.4,0-5.4,4.5,0,1.5,7.8,4.51a10.61,10.61,0,0,0,1.21-4.81"></path><path d="M685.68,282.85h0q.9.3-.3,3.15t-2.4,2.85q-1.8,0-5.7-2.1-12,20.42-67.85,45.93-4.81,2.11-6,2.11a.27.27,0,0,1-.3-.3c0-.4,1.4-1.71,4.2-3.91q19.21-14.4,26.12-23.71a15.63,15.63,0,0,0,3-9.31q0-8.12-5.71-8.11a7.9,7.9,0,0,0-5.25,2.25q-2.55,2.26-2.55,4.06t2.55,4.95a9.87,9.87,0,0,1,2.55,6.16q0,4.2-.6,4.2l-2.4-2.7q-6-6.62-6-8.41a23.18,23.18,0,0,1,3-12q3.3-6.3,9-6.3,9.32,0,9.31,13.81a26.28,26.28,0,0,1-4.8,14.71q-4.21,5.1-8.11,9.9a179.58,179.58,0,0,0,24-14.11q17.71-11.7,23.71-20.11-10.5-5.7-10.5-10.81,0-3.9,4.5-8.7t8.41-4.81q4.8,0,4.8,8.11a35,35,0,0,1-1.8,11.11q2.1.9,5.1,2.1m-7.5-3.3h0q3-11.12-3-11.11a9.77,9.77,0,0,0-3.45,1.35q-2.55,1.35-2.55,2.55,0,3,9,7.21"></path><path d="M310.66,187.71h0c-.2.61-.5.9-.9.9a33.74,33.74,0,0,1-4.5-1.05,27.91,27.91,0,0,0-7.21-1.05A22.37,22.37,0,0,0,290,188q-8.71,3-16.52,11.41-6.9,7.22-6.9,11.11,0,1.8,2.7,4.5a3.19,3.19,0,0,1,1.2,2.71,8.22,8.22,0,0,1-1.95,4.95q-2,2.55-3.45,2.55-2.1,0-4.06-2.4a7.12,7.12,0,0,1-2-4.2q0-18,21.92-31.83a28,28,0,0,1,15-3.9,30.52,30.52,0,0,1,10.51,1.65q4.5,1.65,4.2,3.15M299,202.43h0q0,13.2-17.11,29.42-2.7,2.7-16.21,10.51-14.72,9-17.72,9-.6,0-.6-.9,0-2.1,20.72-16.21a132.21,132.21,0,0,0,15-12.61q8.4-8.1,8.41-11.41,0-4.2-2.71-4.2-4.5,0-4.5,2.1,0,.9,1.5,2t1.5,1.35q0,2.1-2.1,5.41-1.8,3.9-3.6,3.9-6,0-6-7.21,0-5.1,6-11.41t11.71-6.3q1.8,0,3.75,2.4a7.11,7.11,0,0,1,1.95,4.21"></path><path d="M693.72,325h0q-4.44,12.21-16.65,12.21-9.62,0-9.62-11.1a34.61,34.61,0,0,1,.74-6.66,30.83,30.83,0,0,1,6.66-13.32q4.81-5.55,9.25-5.55,10.73,0,10.73,17.39a20,20,0,0,1-1.11,7m-5.18-1.48h0q-1.11-13.32-7.77-13.32c-1,0-2.34.87-4.07,2.59a15.13,15.13,0,0,0-3.7,6.66,6.64,6.64,0,0,0-.74,3c0,3.46,2.22,5.18,6.66,5.18a13.12,13.12,0,0,0,9.62-4.07"></path><path class="cls-1" d="M1140.81,328.19h0q-3.61,9.94-13.56,9.95-7.85,0-7.84-9.05a28.08,28.08,0,0,1,.6-5.42,25.13,25.13,0,0,1,5.43-10.85q3.91-4.53,7.53-4.52,8.74,0,8.75,14.16a16.4,16.4,0,0,1-.91,5.73m-4.22-1.21h0q-.9-10.85-6.33-10.85c-.8,0-1.91.71-3.32,2.11a12.38,12.38,0,0,0-3,5.43,5.37,5.37,0,0,0-.6,2.41q0,4.21,5.42,4.22a10.68,10.68,0,0,0,7.84-3.32"></path><path d="M378.36,187.71h0q0,14.11-12.61,14.11-6.3,0-6.3-7.81,0-8.7,5.7-17.11,1.5-4.8,2.4-4.8t.3,1.2a9.45,9.45,0,0,0-.9,3.6q11.42,6.9,11.41,10.81m-3.6,3h0q0-.6-4.36-3.75a38.14,38.14,0,0,0-4.65-3.16c-.4,0-.95,1-1.65,3a15.32,15.32,0,0,0-1.05,4.2q0,3.3,3.3,3.3A16,16,0,0,0,371.3,193c2.31-.9,3.46-1.65,3.46-2.25"></path><path d="M525.76,300.27h0q0,14.1-12.61,14.11-6.3,0-6.31-7.81,0-8.7,5.71-17.11,1.5-4.81,2.4-4.81c.6,0,.7.4.3,1.21a9.45,9.45,0,0,0-.9,3.6q11.42,6.9,11.41,10.81m-3.6,3h0c0-.4-1.46-1.65-4.36-3.75a36.73,36.73,0,0,0-4.65-3.16c-.4,0-.95,1-1.65,3a15.32,15.32,0,0,0-1.05,4.2q0,3.3,3.3,3.3a16,16,0,0,0,5-1.35c2.3-.9,3.46-1.65,3.46-2.25"></path><path d="M635,248.21h0q0,14.11-12.61,14.11-6.3,0-6.31-7.8,0-8.72,5.71-17.12,1.5-4.8,2.4-4.8t.3,1.2a9.45,9.45,0,0,0-.9,3.6Q635,244.32,635,248.21m-3.6,3h0c0-.4-1.46-1.66-4.36-3.76a37.2,37.2,0,0,0-4.65-3.15q-.6,0-1.65,3a15.36,15.36,0,0,0-1,4.21q0,3.3,3.3,3.3a16,16,0,0,0,5-1.35c2.3-.9,3.46-1.65,3.46-2.25"></path><path d="M816,41.3h0q0,14.12-12.61,14.11-6.3,0-6.3-7.8,0-8.72,5.7-17.11,1.5-4.82,2.4-4.81t.3,1.2a9.45,9.45,0,0,0-.9,3.61Q816,37.4,816,41.3m-3.6,3h0c0-.4-1.45-1.66-4.35-3.76a37.66,37.66,0,0,0-4.66-3.15q-.6,0-1.65,3a15.36,15.36,0,0,0-1.05,4.21q0,3.3,3.3,3.3a16,16,0,0,0,5-1.35q3.45-1.35,3.45-2.25"></path><path class="cls-1" d="M659.39,29.78h0q-7.82,3.6-24,4.81c-.8,0-1.3-.2-1.5-.61a1.22,1.22,0,0,1,.6-1.5Q645,28,661.79,19.87q-2.4-2.1-14.71-3-11.72-.9-14.71-.3a2.7,2.7,0,0,1-1.8,0q-.62-.3.3-1.5a114.08,114.08,0,0,1,10.2-13.51q11.71-2.4,30,3,4.51,1.2,4.51,5.11,0,4.2-6.16,11.26t-10.05,8.85"></path><path class="cls-1" d="M9.9,335.29h0q4.77,2.46,14.68,3.29c.49,0,.79-.14.91-.41a.88.88,0,0,0-.36-1Q18.71,334,8.44,328.49q1.47-1.44,9-2.05c4.77-.42,7.77-.48,9-.21a1.45,1.45,0,0,0,1.1,0c.25-.14.19-.48-.18-1a77.62,77.62,0,0,0-6.24-9.26Q13.94,314.29,2.75,318A3.41,3.41,0,0,0,0,321.5q0,2.88,3.76,7.71t6.14,6.08"></path><path class="cls-1" d="M322.33,77.35h0q-7.8,3.6-24,4.8-1.2,0-1.5-.6a1.22,1.22,0,0,1,.6-1.5q10.51-4.5,27.32-12.61-2.4-2.1-14.71-3-11.7-.9-14.71-.3a2.7,2.7,0,0,1-1.8,0q-.6-.3.3-1.5A114.28,114.28,0,0,1,304,49.12q11.7-2.4,30,3,4.5,1.2,4.5,5.1,0,4.2-6.15,11.26t-10.06,8.86"></path><path d="M515.51,246.91h0q-7.81,3.6-24,4.81c-.8,0-1.3-.2-1.5-.61a1.22,1.22,0,0,1,.6-1.5q10.5-4.5,27.32-12.61-2.4-2.1-14.71-3-11.71-.9-14.71-.3a2.73,2.73,0,0,1-1.81,0q-.6-.3.3-1.5a115.32,115.32,0,0,1,10.21-13.51q11.71-2.4,30,3,4.51,1.2,4.51,5.11,0,4.2-6.16,11.26t-10,8.85"></path><path class="cls-1" d="M403.74,336.56h0q-4.74,2.18-14.56,2.91c-.48,0-.79-.12-.91-.36a.73.73,0,0,1,.37-.91q6.36-2.73,16.55-7.65-1.45-1.28-8.91-1.81-7.09-.56-8.92-.19a1.65,1.65,0,0,1-1.09,0c-.24-.12-.18-.42.18-.91a68.81,68.81,0,0,1,6.19-8.18q7.1-1.45,18.19,1.82,2.73.72,2.73,3.09,0,2.55-3.73,6.82c-2.48,2.85-4.52,4.64-6.09,5.37"></path><path d="M1034.44,246.52h0q-7.82,3.6-24,4.8-1.2,0-1.5-.6a1.22,1.22,0,0,1,.6-1.5q10.5-4.5,27.32-12.61-2.4-2.1-14.71-3-11.71-.9-14.71-.3a2.7,2.7,0,0,1-1.8,0c-.41-.2-.31-.7.3-1.51a114.9,114.9,0,0,1,10.2-13.51q11.72-2.4,30,3,4.52,1.2,4.51,5.1,0,4.2-6.16,11.26t-10,8.86"></path><path d="M54.87,55h0q-6.72,3.11-20.7,4.14c-.69,0-1.12-.18-1.29-.52a1,1,0,0,1,.52-1.29q9.06-3.88,23.54-10.87-2.07-1.82-12.68-2.59-10.08-.76-12.67-.26a2.23,2.23,0,0,1-1.55,0c-.35-.17-.26-.6.25-1.29a99.52,99.52,0,0,1,8.8-11.64Q49.19,28.64,65,33.3q3.89,1,3.88,4.39,0,3.63-5.3,9.71T54.87,55"></path><path d="M576.62,36.65h0q-.68,8.77-4.43,12.9-6.87,6.33-16.16-.28A10.52,10.52,0,0,1,551.12,43c-.82-2-1.79-2.27-2.89-.72q-6.27,11.3-15,10.61a12.42,12.42,0,0,1-7.12-3,19.21,19.21,0,0,1-5.66-9.26q-2.58-11-.47-25.54-3.95.18-3.75-2.25.12-1.47,3.45-6.6t3.83-5.1q4.88.38,3.44,12.53-1.5,13.13-.33,20.08t8,7.48q4.39.35,8.84-3.23a11.48,11.48,0,0,0,4.41-9.47q-.36-14.25-1.17-16.52a7.52,7.52,0,0,1-.13-4.67q.6-1.43,1.88-5.25c.8-1.9,1.79-2,3-.26a33.64,33.64,0,0,1,2.36,7.54A70.63,70.63,0,0,1,554,25.08q0,6.87,2.58,11,4.91,6.27,11,4.29a3.14,3.14,0,0,0,2.18-2.78q.25-3.4-6.59-22.58a10.89,10.89,0,0,1-.6-4.95,2,2,0,0,1,.61-1.42c1.72-5.43,3.08-8.1,4-8s1.5,1.75,1.57,5q-.18,2.44,4.27,14.55,4.08,10.62,3.62,16.47"></path><path d="M472.78,238.43h0q0,6.36-2.48,9.55-4.59,5-11.67.71a7.67,7.67,0,0,1-3.89-4.25c-.71-1.41-1.41-1.53-2.12-.35q-3.89,8.49-10.26,8.49a9,9,0,0,1-5.3-1.77,14,14,0,0,1-4.6-6.37,49.64,49.64,0,0,1-1.76-18.39c-1.89.24-2.83-.23-2.83-1.41,0-.71.7-2.36,2.12-4.95s2.24-3.89,2.47-3.89q3.54,0,3.19,8.84-.36,9.56.88,14.5t6.19,5a9,9,0,0,0,6.19-2.83,8.31,8.31,0,0,0,2.65-7.07q-1.06-10.26-1.77-11.85a5.43,5.43,0,0,1-.35-3.36c.23-.7.59-2,1.06-3.89.47-1.41,1.18-1.53,2.12-.35a24.57,24.57,0,0,1,2.12,5.3,51.16,51.16,0,0,1,1.06,11.32,14.5,14.5,0,0,0,2.48,7.78q3.89,4.25,8.13,2.47a2.26,2.26,0,0,0,1.41-2.12q0-2.48-6-15.91a7.89,7.89,0,0,1-.7-3.54,1.43,1.43,0,0,1,.35-1.06c.94-4,1.77-6,2.48-6s1.17,1.18,1.41,3.54q0,1.77,3.89,10.25,3.54,7.43,3.54,11.67"></path><path d="M122.84,275.44h0q0,6.36-2.48,9.54-4.59,4.95-11.67.71a7.65,7.65,0,0,1-3.89-4.24c-.71-1.42-1.41-1.53-2.12-.36q-3.89,8.49-10.25,8.49a9,9,0,0,1-5.31-1.77,14,14,0,0,1-4.6-6.36,49.68,49.68,0,0,1-1.76-18.39c-1.89.24-2.83-.24-2.83-1.41,0-.71.7-2.36,2.12-4.95s2.24-3.89,2.47-3.89q3.54,0,3.19,8.84-.36,9.54.88,14.49t6.19,4.95A9,9,0,0,0,99,278.26a8.3,8.3,0,0,0,2.65-7.07q-1.07-10.24-1.77-11.84A5.43,5.43,0,0,1,99.5,256c.23-.71.59-2,1.06-3.89.47-1.42,1.18-1.53,2.12-.36a24.48,24.48,0,0,1,2.12,5.31,51,51,0,0,1,1.06,11.31,14.47,14.47,0,0,0,2.48,7.78q3.89,4.25,8.13,2.48a2.26,2.26,0,0,0,1.41-2.12q0-2.47-6-15.92a7.87,7.87,0,0,1-.7-3.53,1.41,1.41,0,0,1,.35-1.06q1.41-6,2.48-6c.7,0,1.17,1.18,1.41,3.53q0,1.77,3.89,10.26,3.54,7.43,3.54,11.67"></path><path d="M904.59,263.25h0q0,5.63-2.19,8.45-4.08,4.38-10.33.63a6.79,6.79,0,0,1-3.45-3.76c-.63-1.25-1.25-1.36-1.88-.31q-3.43,7.51-9.08,7.51a7.9,7.9,0,0,1-4.7-1.57,12.35,12.35,0,0,1-4.07-5.63,44.09,44.09,0,0,1-1.56-16.28c-1.67.2-2.51-.21-2.51-1.26,0-.62.63-2.09,1.88-4.38s2-3.45,2.19-3.45q3.14,0,2.82,7.83-.32,8.46.78,12.84c.73,2.92,2.56,4.39,5.48,4.39a8,8,0,0,0,5.48-2.51,7.32,7.32,0,0,0,2.35-6.26c-.62-6.06-1.15-9.55-1.56-10.49a4.81,4.81,0,0,1-.32-3c.21-.62.53-1.77.94-3.44.42-1.25,1-1.36,1.88-.31a21.4,21.4,0,0,1,1.88,4.69,45.23,45.23,0,0,1,.94,10,12.88,12.88,0,0,0,2.19,6.89q3.45,3.76,7.2,2.19a2,2,0,0,0,1.26-1.88q0-2.19-5.33-14.09a7.06,7.06,0,0,1-.62-3.13,1.27,1.27,0,0,1,.31-.94q1.26-5.33,2.19-5.32c.63,0,1,1,1.25,3.13q0,1.56,3.45,9.08,3.13,6.59,3.13,10.34"></path><path d="M96.48,114.29h0a4.07,4.07,0,0,1-1.8,2.71.5.5,0,0,0-.3-.46q-.3-.15-.3-.75a27.81,27.81,0,0,0,.6-5.4q0-11.11-10.21-20.11a10.44,10.44,0,0,1,1.35-3.91q1.35-2.7,2.25-2.7a15.12,15.12,0,0,1,4.21,3.9A32,32,0,0,1,98,105.89a23.2,23.2,0,0,1-1.5,8.4"></path><path d="M58.22,244.76h0a4,4,0,0,1-1.8,2.7.48.48,0,0,0-.3-.45q-.3-.15-.3-.75a27.81,27.81,0,0,0,.6-5.4q0-11.12-10.21-20.12a10.29,10.29,0,0,1,1.36-3.9q1.35-2.7,2.25-2.7A15,15,0,0,1,54,218a32,32,0,0,1,5.7,18.31,23.22,23.22,0,0,1-1.5,8.41"></path><path d="M498.16,181.81h0a4,4,0,0,1-1.8,2.7.48.48,0,0,0-.3-.45q-.3-.15-.3-.75a27.81,27.81,0,0,0,.6-5.4q0-11.11-10.21-20.12a10.41,10.41,0,0,1,1.35-3.9q1.35-2.7,2.25-2.7a15,15,0,0,1,4.2,3.9,31.9,31.9,0,0,1,5.71,18.31,23.22,23.22,0,0,1-1.5,8.41"></path><path d="M710.32,43.32h0c-.55,1.94-1.39,3.2-2.5,3.75a.66.66,0,0,0-.42-.62q-.42-.21-.42-1.05a38.38,38.38,0,0,0,.84-7.51q0-15.43-14.19-27.95c0-1.12.63-2.92,1.88-5.43S697.8.76,698.64.76a20.8,20.8,0,0,1,5.84,5.42,44.39,44.39,0,0,1,7.93,25.45,32.31,32.31,0,0,1-2.09,11.69"></path><path d="M170.66,102.49h0q-2,7-6,9a1.61,1.61,0,0,0-1-1.5c-.67-.34-1-1.17-1-2.5a92.74,92.74,0,0,0,2-18q0-37-34-66.92,0-4,4.5-13t7.49-9q7,4,14,13,19,28,19,60.93a77.25,77.25,0,0,1-5,28"></path><path d="M247.64,225.69h0a15.54,15.54,0,0,1-3.3,9.3q-3.9,4.81-8.71,4.81-8.1,0-8.1-9.61,0-5.4,3-15a40.7,40.7,0,0,0,1.8-12.31q-.3-15-12-22.82-.6-.6.6-4.5t1.5-3.9q2.1,0,6.91,7.2a39.08,39.08,0,0,1,6.3,21.92,27.29,27.29,0,0,1-.75,6,25.6,25.6,0,0,0-.75,5.41,4,4,0,0,0,1.5,1.8q12,5.1,12,11.71m-3.6,2.4h0q0-.9-4.66-4.2t-5.25-3.31c-.8,0-1.55,1-2.25,3a15.22,15.22,0,0,0-1,4.5q0,4.8,4.8,4.8,1.5,0,5-1.95t3.46-2.85"></path><path d="M52.26,151.52h0a8.6,8.6,0,0,1-1.83,5.15,6.2,6.2,0,0,1-4.82,2.66c-3,0-4.49-1.78-4.49-5.32a30.31,30.31,0,0,1,1.66-8.31,22.29,22.29,0,0,0,1-6.81q-.16-8.31-6.64-12.63-.35-.33.33-2.49a6.7,6.7,0,0,1,.83-2.16c.77,0,2.05,1.33,3.82,4a21.55,21.55,0,0,1,3.49,12.13,15,15,0,0,1-.42,3.32,14.45,14.45,0,0,0-.41,3,2.29,2.29,0,0,0,.83,1q6.64,2.82,6.65,6.48m-2,1.33h0c0-.34-.86-1.11-2.57-2.33a13.93,13.93,0,0,0-2.91-1.83c-.44,0-.86.56-1.25,1.66a8.35,8.35,0,0,0-.58,2.5,2.35,2.35,0,0,0,2.66,2.65,6.81,6.81,0,0,0,2.74-1.08c1.27-.72,1.91-1.24,1.91-1.57"></path><path d="M832.52,220.33h0a15.54,15.54,0,0,1-3.3,9.3q-3.91,4.81-8.71,4.81-8.1,0-8.11-9.61,0-5.4,3-15a40.7,40.7,0,0,0,1.8-12.31q-.3-15-12-22.82-.6-.6.6-4.5t1.5-3.9q2.1,0,6.91,7.2a39.08,39.08,0,0,1,6.3,21.92,27.29,27.29,0,0,1-.75,6,25.51,25.51,0,0,0-.75,5.41,4,4,0,0,0,1.5,1.8q12,5.1,12,11.71m-3.6,2.4h0q0-.9-4.66-4.2T819,215.22c-.8,0-1.55,1-2.25,3a15.22,15.22,0,0,0-1,4.5q0,4.8,4.8,4.8,1.5,0,5-1.95t3.46-2.85"></path><path d="M1089,112.93h0a15.55,15.55,0,0,1-3.3,9.31q-3.9,4.8-8.71,4.8-8.1,0-8.1-9.6,0-5.41,3-15a40.75,40.75,0,0,0,1.8-12.31q-.3-15-12-22.82-.6-.6.6-4.5c.8-2.61,1.3-3.91,1.5-3.91q2.1,0,6.91,7.21A39.06,39.06,0,0,1,1077,88a27.29,27.29,0,0,1-.75,6,25.43,25.43,0,0,0-.75,5.4,4.07,4.07,0,0,0,1.5,1.81q12,5.1,12,11.7m-3.6,2.41h0c0-.6-1.55-2-4.65-4.21s-4.86-3.3-5.26-3.3q-1.2,0-2.25,3a15.27,15.27,0,0,0-1,4.51q0,4.8,4.8,4.8,1.5,0,5-2t3.45-2.85"></path><path d="M965.33,66.68h0a.86.86,0,0,1,.3.6q0,6.31-9.3,12.61-6.32,4.2-16.21,4.21a33.63,33.63,0,0,1-12.61-2.41,15.93,15.93,0,0,0-5.41-1.5q-1.5,0-4.2,3.16t-3.6,2.55v-.6q0-3,3.3-8.71,3.9-6.3,7.8-6.3c.2,0,2.21.7,6,2.1q14.42,5.1,24.32.3a36.64,36.64,0,0,0,6.9-4.51q2.1-1.8,2.7-1.5"></path><path d="M703.93,90.7h0a.86.86,0,0,1,.3.6q0,6.3-9.31,12.61-6.3,4.2-16.21,4.2a33.66,33.66,0,0,1-12.61-2.4,15.84,15.84,0,0,0-5.4-1.5c-1,0-2.41,1.05-4.21,3.15s-3,3-3.6,2.55v-.6q0-3,3.3-8.7Q660.1,94.3,664,94.3q.3,0,6,2.1,14.41,5.11,24.32.3a37.48,37.48,0,0,0,6.91-4.5q2.1-1.8,2.7-1.5"></path><path d="M1083.78,321.59h0a.78.78,0,0,1,.26.52q0,5.4-8,10.8-5.4,3.6-13.89,3.6a28.66,28.66,0,0,1-10.8-2.06,13.72,13.72,0,0,0-4.63-1.28q-1.29,0-3.6,2.7t-3.09,2.19v-.52c0-1.71,1-4.2,2.83-7.46q3.34-5.4,6.69-5.4.26,0,5.15,1.8,12.35,4.38,20.83.26a31.7,31.7,0,0,0,5.91-3.86c1.2-1,2-1.46,2.32-1.29"></path><path d="M497.07,298.75h0a.86.86,0,0,1,.3.6q0,6.3-9.3,12.61-6.31,4.2-16.22,4.2a33.61,33.61,0,0,1-12.6-2.4,15.93,15.93,0,0,0-5.41-1.5q-1.5,0-4.2,3.15T446,318v-.6q0-3,3.3-8.71,3.9-6.3,7.8-6.3c.2,0,2.21.7,6,2.1q14.42,5.1,24.32.3a37.08,37.08,0,0,0,6.9-4.5q2.1-1.8,2.7-1.5"></path><path d="M801.9,279.65h0a.86.86,0,0,1,.3.6q0,6.3-9.3,12.61-6.31,4.2-16.22,4.2a33.61,33.61,0,0,1-12.6-2.4,15.93,15.93,0,0,0-5.41-1.5q-1.5,0-4.2,3.15t-3.6,2.55v-.6q0-3,3.3-8.7,3.9-6.31,7.8-6.31.31,0,6,2.1,14.41,5.11,24.32.3a37.08,37.08,0,0,0,6.9-4.5q2.1-1.8,2.7-1.5"></path><path d="M502.22,0h0a.27.27,0,0,1,.3.3q0,6.3-9.75,12.91T467.4,19.82q-12,0-19.37-2.71t-7.65-2.7q-1.5,0-3.91,3t-3.3,3a1.06,1.06,0,0,1-.9-.9q0-2.71,3.6-8.41,3.92-6.6,7.81-6.61-.6,0,8.56,3a59.83,59.83,0,0,0,18.76,3q15,0,24.32-5.41,7.5-4.8,6.9-5.1"></path><path d="M1007.44,241.15h0a.27.27,0,0,1,.3.3q0,6.31-9.76,12.91T972.61,261q-12,0-19.36-2.7c-4.91-1.8-7.46-2.71-7.66-2.71-1,0-2.3,1-3.9,3s-2.71,3-3.31,3a1.06,1.06,0,0,1-.9-.9q0-2.7,3.61-8.41,3.9-6.6,7.8-6.6-.6,0,8.56,3a59.87,59.87,0,0,0,18.76,3q15,0,24.32-5.4,7.5-4.8,6.91-5.11"></path><path d="M218.71,208h0q.9,0,.3,3a9.13,9.13,0,0,1-1.5,3.81,6.65,6.65,0,0,1-4.5,2.12,4.18,4.18,0,0,1-3.6-1.06q-3.61-3.6-3-10.17.6-3.82,4.51-15.06a6.52,6.52,0,0,1,1.5-2.33c1.4-1.55,2.1-1.77,2.1-.64a7.93,7.93,0,0,1-.9,2.55q-3.9,10.6-3.9,15.9,0,3.81,1.5,5.09a3,3,0,0,0,2.1.85,4.25,4.25,0,0,0,4.2-3c.2-.71.6-1.06,1.2-1.06"></path><path d="M397.42,267.6h0q.9,0,.3,3a9.13,9.13,0,0,1-1.5,3.81,6.69,6.69,0,0,1-4.51,2.12,4.18,4.18,0,0,1-3.6-1.06q-3.6-3.6-3-10.17.6-3.82,4.5-15.06a6.52,6.52,0,0,1,1.5-2.33c1.4-1.55,2.1-1.77,2.1-.64a7.93,7.93,0,0,1-.9,2.55q-3.9,10.61-3.9,15.9,0,3.81,1.5,5.09a3,3,0,0,0,2.1.85,4.26,4.26,0,0,0,4.21-3c.2-.71.6-1.06,1.2-1.06"></path><path d="M27.78,189.28h0q.9,0,.3,3a9.13,9.13,0,0,1-1.5,3.81,6.72,6.72,0,0,1-4.51,2.12,4.18,4.18,0,0,1-3.6-1.06q-3.6-3.6-3-10.17.6-3.82,4.5-15.06a6.52,6.52,0,0,1,1.5-2.33c1.4-1.55,2.1-1.77,2.1-.64a7.93,7.93,0,0,1-.9,2.55q-3.9,10.6-3.9,15.9,0,3.81,1.5,5.09a3,3,0,0,0,2.1.85,4.26,4.26,0,0,0,4.21-3c.2-.71.6-1.06,1.2-1.06"></path><path d="M63.61,313.3h0c.39,0,.46.65.2,1.94a6.09,6.09,0,0,1-1,2.5,4.35,4.35,0,0,1-3,1.39,2.77,2.77,0,0,1-2.36-.69q-2.35-2.37-2-6.67a74.86,74.86,0,0,1,3-9.86,4.27,4.27,0,0,1,1-1.53c.92-1,1.37-1.16,1.37-.42a5,5,0,0,1-.59,1.67q-2.55,6.94-2.55,10.42c0,1.66.33,2.78,1,3.33a1.94,1.94,0,0,0,1.38.56A2.78,2.78,0,0,0,62.82,314a.8.8,0,0,1,.79-.69"></path><path d="M662.81,244.1h0q.9,0,.3,3a9.19,9.19,0,0,1-1.5,3.81A6.74,6.74,0,0,1,657.1,253a4.18,4.18,0,0,1-3.6-1.06q-3.6-3.6-3-10.18.6-3.81,4.5-15a6.43,6.43,0,0,1,1.5-2.33q2.1-2.34,2.1-.64a7.93,7.93,0,0,1-.9,2.55q-3.9,10.59-3.9,15.9,0,3.81,1.5,5.09a3,3,0,0,0,2.1.84,4.26,4.26,0,0,0,4.21-3c.2-.71.6-1.06,1.2-1.06"></path><path d="M793.16,238.67h0q.9,0,.3,3a9.13,9.13,0,0,1-1.5,3.81,6.72,6.72,0,0,1-4.51,2.12,4.18,4.18,0,0,1-3.6-1.06q-3.6-3.6-3-10.17.6-3.83,4.5-15.06a6.52,6.52,0,0,1,1.5-2.33c1.4-1.55,2.1-1.77,2.1-.64a7.93,7.93,0,0,1-.9,2.55q-3.9,10.6-3.9,15.9,0,3.81,1.5,5.09a3,3,0,0,0,2.1.85,4.25,4.25,0,0,0,4.21-3c.2-.71.6-1.06,1.2-1.06"></path><path d="M961,172.75h0c.6,0,.7,1,.3,3a9.19,9.19,0,0,1-1.5,3.82,6.69,6.69,0,0,1-4.5,2.12,4.18,4.18,0,0,1-3.6-1.06q-3.61-3.6-3-10.18.6-3.81,4.51-15a6.43,6.43,0,0,1,1.5-2.33q2.1-2.34,2.1-.64a8,8,0,0,1-.9,2.55q-3.9,10.59-3.9,15.9,0,3.81,1.5,5.09a3,3,0,0,0,2.1.84,4.25,4.25,0,0,0,4.2-3c.2-.71.6-1.06,1.2-1.06"></path><path d="M1088.71,155.2h0q.9,0,.3,3a9.19,9.19,0,0,1-1.5,3.82,6.74,6.74,0,0,1-4.51,2.12,4.18,4.18,0,0,1-3.6-1.06q-3.6-3.6-3-10.18.6-3.81,4.5-15.05a6.43,6.43,0,0,1,1.5-2.33q2.1-2.34,2.1-.64a8,8,0,0,1-.9,2.55q-3.9,10.59-3.9,15.9c0,2.54.5,4.24,1.5,5.08a3,3,0,0,0,2.1.85,4.26,4.26,0,0,0,4.21-3c.2-.7.6-1.06,1.2-1.06"></path><path d="M981.67,285.67h0q.9,0,.3,3a9.19,9.19,0,0,1-1.5,3.82,6.72,6.72,0,0,1-4.51,2.12,4.21,4.21,0,0,1-3.6-1.06q-3.6-3.61-3-10.18.6-3.81,4.5-15a6.56,6.56,0,0,1,1.5-2.34q2.1-2.32,2.1-.63a8,8,0,0,1-.9,2.54q-3.9,10.61-3.9,15.9c0,2.55.5,4.24,1.5,5.09a3,3,0,0,0,2.1.85,4.25,4.25,0,0,0,4.21-3c.2-.7.6-1.06,1.2-1.06"></path><path d="M1141,130.39h0q1.17,0,.39,3.87a11.94,11.94,0,0,1-2,5,8.76,8.76,0,0,1-5.87,2.77q-3.13.27-4.7-1.39-4.7-4.69-3.92-13.27.78-5,5.88-19.63a8.4,8.4,0,0,1,2-3q2.75-3,2.74-.83a10.36,10.36,0,0,1-1.17,3.31q-5.09,13.83-5.09,20.74,0,5,2,6.64a3.85,3.85,0,0,0,2.74,1.11,5.54,5.54,0,0,0,5.48-3.88c.26-.92.78-1.38,1.57-1.38"></path><path d="M92.2,137.27h0q1.17,0,.39,3.87a11.81,11.81,0,0,1-2,5,8.74,8.74,0,0,1-5.87,2.77,5.47,5.47,0,0,1-4.7-1.39q-4.69-4.69-3.91-13.27.78-5,5.87-19.63a8.42,8.42,0,0,1,2-3c1.82-2,2.74-2.3,2.74-.82A10.3,10.3,0,0,1,85.54,114q-5.08,13.83-5.09,20.74c0,3.32.66,5.53,2,6.64a3.86,3.86,0,0,0,2.74,1.11,5.55,5.55,0,0,0,5.48-3.88,1.6,1.6,0,0,1,1.57-1.38"></path><path d="M1057.78,84.94h0c1.31,0,1.53,1.76.66,5.26-.88,3.25-2,5.51-3.28,6.76a16.22,16.22,0,0,1-9.83,3.75c-3.5.25-6.12-.37-7.87-1.88q-7.87-6.37-6.56-18,1.32-6.76,9.84-26.66A11.54,11.54,0,0,1,1044,50c3.06-2.75,4.59-3.13,4.59-1.12q0,1.13-2,4.5-8.52,18.77-8.53,28.16,0,6.75,3.28,9a7.35,7.35,0,0,0,4.59,1.5q6.55,0,9.18-5.26a2.56,2.56,0,0,1,2.62-1.88"></path><path d="M1131.39,28.86h0c1.25-.39,1.91.94,2,4q0,4.28-1.41,6.38a18.11,18.11,0,0,1-8.42,6c-3.27,1.26-5.92,1.55-8,.89q-9.12-2.7-10.82-12.38-.46-5.77,2.61-24.23a10.32,10.32,0,0,1,2.08-4.28c2.22-3.12,3.58-3.89,4.09-2.29.19.6,0,2-.73,4.19q-3.36,17.54-1,25c1.15,3.59,3,5.66,5.41,6.19a8.36,8.36,0,0,0,4.76-.19q6.24-2,7.41-7a2.57,2.57,0,0,1,2-2.3"></path><path d="M891.77,42h0q-3.9,9.2-12.61,9.2-4.8,0-7.2-2.35-5.12-5.28-5.11-11.35,0-4.3,2.4-11.95a94.8,94.8,0,0,1,9.61-21.14q2.7-4.3,4.2-4.31a.91.91,0,0,1,.6,1,9.82,9.82,0,0,1-1.5,4.11q-3,5.68-8.4,21.34-2.4,8.82,1.2,13.32a8.19,8.19,0,0,0,6.9,3.13,7.27,7.27,0,0,0,4.51-1.37,43.93,43.93,0,0,0,3.3-3.13q1.2-1.77,1.8-1.77c1.8,0,1.9,1.77.3,5.29"></path><path d="M787.09,57.5h0Q784.76,63,779.6,63a5.91,5.91,0,0,1-4.28-1.39,9.63,9.63,0,0,1-3-6.74,25.38,25.38,0,0,1,1.42-7.09,56,56,0,0,1,5.7-12.55c1.07-1.71,1.9-2.56,2.5-2.56a.53.53,0,0,1,.35.58,5.76,5.76,0,0,1-.89,2.44,106.15,106.15,0,0,0-5,12.67q-1.42,5.24.72,7.9a4.85,4.85,0,0,0,4.1,1.86,4.3,4.3,0,0,0,2.67-.81c.47-.39,1.13-1,2-1.86.47-.7.83-1,1.07-1q1.61,0,.18,3.14"></path><path d="M987.81,68h0q9-10,17.36-7.23,4.67,1.5,5.59,5a23.42,23.42,0,0,1-1.24,15q-2.49,5-9.31,13.21a147.18,147.18,0,0,1-21.09,22.68q-5,4.48-6.51,3.74v-1a49.7,49.7,0,0,1,4-4.74q6.21-5.73,20.16-22.68,6.83-10,5.89-16.45a6.75,6.75,0,0,0-9.92-5.24A19.55,19.55,0,0,0,988.12,73c-1.66,1-2.59,1.41-2.79,1.24q-2.8-.5,2.48-6.23"></path><path d="M233.61,48.93h0q1.19,1.2,0,5.94-.8,4.76-2.38,4.75l-2.37-3.16c-1.59-2.11-3.3-3.17-5.15-3.17q-5.55,0-7.92,20.79t-4.36,20.39q-2.37,0-5.14-9.11-3.18-11.48-10.7-17.82a6.28,6.28,0,0,1-1.18,1.59c-.8.26-3-.6-6.54-2.58s-5.47-3.76-5.74-5.34q-1.19-10.69,4-10.69,9.51-.41,20.2,20.19a92.7,92.7,0,0,0,4.35,9.9q1.19-9.9,3.17-19.8Q217,42.6,223.71,43q5.14,0,9.9,5.94"></path><path d="M51,252h0q.54.54,0,2.73c-.25,1.46-.61,2.19-1.1,2.19l-1.09-1.46A3,3,0,0,0,46.46,254q-2.55,0-3.65,9.57c-.73,6.38-1.39,9.51-2,9.39s-1.52-1.4-2.37-4.19a15.89,15.89,0,0,0-4.92-8.21,2.75,2.75,0,0,1-.55.73c-.36.13-1.37-.27-3-1.18s-2.52-1.73-2.64-2.46c-.36-3.28.24-4.92,1.82-4.92q4.38-.18,9.3,9.29a42.36,42.36,0,0,0,2,4.56c.37-3,.85-6.08,1.46-9.11q1.45-8.38,4.56-8.21c1.58,0,3.1.92,4.56,2.74"></path><path class="cls-1" d="M635.44,90.76H637a14.16,14.16,0,0,1,4.42,1.89c1.89,1.48,2.94,2.84,3.15,4.11v.95a9.21,9.21,0,0,1-.15,1.73c-.11.53-.27,1.21-.48,2a13,13,0,0,0-.63,1.58c-.21.63-.52,1-1,1s-.84-.53-1.26-1.58a16.79,16.79,0,0,0-2-2.37,3.64,3.64,0,0,0-3.32-1.1,3.28,3.28,0,0,0-2.36,2.21c-.53,1.26-1,2.42-1.43,3.47a37.64,37.64,0,0,0-1.57,8c-.22,2.64-.53,5.43-.95,8.37-.21,1.27-.42,2.63-.63,4.11a16.76,16.76,0,0,1-.95,3.79,18.81,18.81,0,0,1-2.69,5.21,24.9,24.9,0,0,1-3.94,4.26,26.82,26.82,0,0,1-4.74,3.79l-5,3.16a56.16,56.16,0,0,1-10.9,5.52Q595,153,588.07,155.18A92.94,92.94,0,0,1,604.18,144a93.79,93.79,0,0,0,16.1-11.21,16.25,16.25,0,0,1,2.05-1.74,5.5,5.5,0,0,0,1.74-2.05,24,24,0,0,1-1.89-5.21,24.32,24.32,0,0,0-1.9-5.21,30.4,30.4,0,0,0-6.31-8.21c-.43.42-.64.73-.64.94s-.21.32-.63.32a5.24,5.24,0,0,1-1.58-.32,13,13,0,0,1-1.58-.63,7.1,7.1,0,0,0-2.52-1.26c-.63-.42-1.37-1-2.21-1.58a4,4,0,0,1-1.58-2.21,4.68,4.68,0,0,1-.47-2.68,23.38,23.38,0,0,0,.15-2.37q.95-4.74,6-3.48a11.48,11.48,0,0,1,6,4.11,43.3,43.3,0,0,1,4.11,6c.63,1,1.31,2.1,2.05,3.16a13.28,13.28,0,0,1,1.74,3.47c.42,1,.84,2.21,1.26,3.47a11.23,11.23,0,0,0,1.89,3.48q.64-4.11,1.27-8.37t1.26-8.69c.42-1.26.79-2.57,1.11-3.94a24.18,24.18,0,0,1,1.1-3.63A15.25,15.25,0,0,1,632.44,93a5.75,5.75,0,0,1,3-2.21"></path><path d="M1090.81,267.51h.67a6.06,6.06,0,0,1,1.9.81,3.18,3.18,0,0,1,1.35,1.76v.41a3.38,3.38,0,0,1-.07.74c0,.23-.11.52-.2.88a5.34,5.34,0,0,0-.27.68c-.09.27-.23.4-.41.4s-.36-.22-.54-.67a7.18,7.18,0,0,0-.88-1,1.56,1.56,0,0,0-1.42-.47,1.39,1.39,0,0,0-1,1c-.23.54-.43,1-.61,1.48a16.28,16.28,0,0,0-.68,3.46c-.09,1.12-.23,2.32-.41,3.58-.09.54-.18,1.13-.27,1.76a7.33,7.33,0,0,1-.4,1.63,8.27,8.27,0,0,1-1.15,2.23,10.89,10.89,0,0,1-1.69,1.83,11.83,11.83,0,0,1-2,1.62l-2.17,1.35a23.08,23.08,0,0,1-4.67,2.37q-2.37.88-5.35,1.83a39.91,39.91,0,0,1,6.91-4.81,40.17,40.17,0,0,0,6.9-4.8,6.27,6.27,0,0,1,.88-.74,2.44,2.44,0,0,0,.74-.88,10.38,10.38,0,0,1-.81-2.24,10.3,10.3,0,0,0-.81-2.23,12.92,12.92,0,0,0-2.71-3.52c-.18.18-.27.32-.27.41s-.09.13-.27.13a2.27,2.27,0,0,1-.68-.13,5.14,5.14,0,0,1-.67-.27,3,3,0,0,0-1.09-.55c-.27-.18-.58-.4-.94-.67a1.72,1.72,0,0,1-.68-.95,2,2,0,0,1-.2-1.15c0-.41.07-.74.07-1,.27-1.35,1.12-1.84,2.57-1.48A4.87,4.87,0,0,1,1082,272a18.79,18.79,0,0,1,1.76,2.57c.27.45.56.9.88,1.35a5.93,5.93,0,0,1,.74,1.49c.18.45.36.95.54,1.49a4.63,4.63,0,0,0,.82,1.49c.18-1.18.36-2.37.54-3.59s.36-2.46.54-3.72a17.43,17.43,0,0,0,.47-1.69,11.16,11.16,0,0,1,.48-1.56,6.45,6.45,0,0,1,.74-1.35,2.48,2.48,0,0,1,1.29-.95"></path><path d="M332.14,308.3h0a17.56,17.56,0,0,1,1.53-2.92,3.76,3.76,0,0,1,2.64-1.81h1.12a8.52,8.52,0,0,1,3.06,1.11,13,13,0,0,1,2.5,1.95,10.84,10.84,0,0,1,1,1.11,2.25,2.25,0,0,1,.41,1.39v.28a15.26,15.26,0,0,0-.55,3.34,8.62,8.62,0,0,0-.56,1.67c-.18.74-.46,1-.83.84-.19,0-.42-.19-.7-.56a8.5,8.5,0,0,0-.7-.84,1.47,1.47,0,0,0-.55-.69,1.52,1.52,0,0,1-.56-.7c-.37-.37-.83-.78-1.39-1.25a2.12,2.12,0,0,0-2-.42,3.35,3.35,0,0,0-2.22,2.23,15.21,15.21,0,0,0-1.95,5.71c-.37,2.32-.75,4.5-1.12,6.54-.18,1.11-.32,2.27-.41,3.48s-.24,2.36-.42,3.48c-.19,1.48-.42,2.87-.7,4.17a10.86,10.86,0,0,1-1.25,3.34H328a5,5,0,0,1-1.53-1.95c-.46-.93-.88-1.85-1.25-2.78s-.7-1.86-1-2.78-.61-1.86-1-2.79a21.46,21.46,0,0,0-5.29-7.79l-.83-.84c-.19,0-.33.19-.42.56a.65.65,0,0,1-.69.56,3.57,3.57,0,0,1-1.26-.28c-.46-.19-.88-.37-1.25-.56a2.42,2.42,0,0,0-1.11-.69,6.69,6.69,0,0,1-1.12-.42c-.55-.37-1.2-.84-1.94-1.39a5.49,5.49,0,0,1-1.67-2,3.76,3.76,0,0,1-.14-1.81,13.26,13.26,0,0,0,.14-1.81,67.13,67.13,0,0,1-6.55,7.65,33.73,33.73,0,0,1-8.21,6,100.43,100.43,0,0,1-9.32,5.15,53.6,53.6,0,0,1-10.44,3.75v-.27q8.91-5.57,17.68-11.55a143,143,0,0,0,16.56-13.22,9.75,9.75,0,0,1,1.11-1,6.71,6.71,0,0,1,1.11-.69,4.43,4.43,0,0,1,2.23,0,6.14,6.14,0,0,1,1.95.83,14.46,14.46,0,0,1,4.73,3.76,41.79,41.79,0,0,1,3.62,5.15,27.43,27.43,0,0,1,3.06,5.56,40.52,40.52,0,0,0,2.23,5.29v.28q0,.28.27,0c.38-2.41.79-4.82,1.26-7.24s.88-4.91,1.25-7.51a18.94,18.94,0,0,1,1.95-6.68"></path><path d="M489.45,99.57h0a19.21,19.21,0,0,1,1.65-3.15,4.11,4.11,0,0,1,2.86-2h1.2a9.33,9.33,0,0,1,3.3,1.2,14,14,0,0,1,2.7,2.1,11.26,11.26,0,0,1,1,1.2,2.43,2.43,0,0,1,.45,1.5v.3a16.57,16.57,0,0,0-.6,3.61,9.3,9.3,0,0,0-.6,1.8q-.3,1.2-.9.9-.3,0-.75-.6a8.77,8.77,0,0,0-.75-.9,1.62,1.62,0,0,0-.6-.75,1.62,1.62,0,0,1-.6-.75q-.6-.6-1.5-1.35a2.25,2.25,0,0,0-2.1-.45,3.64,3.64,0,0,0-2.41,2.4,16.46,16.46,0,0,0-2.1,6.15c-.4,2.5-.8,4.86-1.2,7.06q-.3,1.8-.45,3.75t-.45,3.75c-.2,1.6-.45,3.1-.75,4.51a11.74,11.74,0,0,1-1.35,3.6H485a5.31,5.31,0,0,1-1.65-2.1c-.5-1-.95-2-1.35-3s-.75-2-1.05-3-.65-2-1-3a23.29,23.29,0,0,0-5.71-8.41l-.9-.9q-.3,0-.45.6a.71.71,0,0,1-.75.6,3.68,3.68,0,0,1-1.35-.3q-.75-.3-1.35-.6a2.65,2.65,0,0,0-1.2-.75,5.86,5.86,0,0,1-1.2-.45q-.9-.6-2.1-1.5a5.88,5.88,0,0,1-1.81-2.1,4.21,4.21,0,0,1-.15-2,13.85,13.85,0,0,0,.15-1.95,71.09,71.09,0,0,1-7,8.25,36.49,36.49,0,0,1-8.86,6.46,106.76,106.76,0,0,1-10.06,5.55A58.38,58.38,0,0,1,425.81,129v-.3q9.6-6,19.06-12.46A153.14,153.14,0,0,0,462.73,102a10.37,10.37,0,0,1,1.2-1.06,8,8,0,0,1,1.21-.75,4.88,4.88,0,0,1,2.4,0,6.67,6.67,0,0,1,2.1.9,15.68,15.68,0,0,1,5.1,4.06,46.88,46.88,0,0,1,3.91,5.55,29.6,29.6,0,0,1,3.3,6,43.79,43.79,0,0,0,2.4,5.7v.3q0,.3.3,0,.6-3.9,1.35-7.8t1.35-8.11a20.66,20.66,0,0,1,2.1-7.21"></path><path d="M854.13,283.36h0a19.31,19.31,0,0,1,1.66-3.15,4.07,4.07,0,0,1,2.85-1.95h1.2a9.33,9.33,0,0,1,3.3,1.2,14,14,0,0,1,2.7,2.1,11.26,11.26,0,0,1,1,1.2,2.43,2.43,0,0,1,.45,1.5v.3a16.41,16.41,0,0,0-.6,3.6,9.3,9.3,0,0,0-.6,1.8c-.2.8-.5,1.11-.9.91-.2,0-.45-.2-.75-.61a8.77,8.77,0,0,0-.75-.9,1.62,1.62,0,0,0-.6-.75,1.62,1.62,0,0,1-.6-.75q-.6-.6-1.5-1.35a2.25,2.25,0,0,0-2.1-.45,3.61,3.61,0,0,0-2.4,2.4,16.52,16.52,0,0,0-2.11,6.16q-.6,3.75-1.2,7.05c-.2,1.2-.35,2.46-.45,3.76s-.25,2.55-.45,3.75q-.3,2.4-.75,4.5a11.74,11.74,0,0,1-1.35,3.6h-.6a5.31,5.31,0,0,1-1.65-2.1q-.75-1.5-1.35-3t-1-3q-.45-1.5-1.05-3a23.12,23.12,0,0,0-5.71-8.41l-.9-.9q-.3,0-.45.6a.71.71,0,0,1-.75.6,3.68,3.68,0,0,1-1.35-.3q-.75-.3-1.35-.6a2.65,2.65,0,0,0-1.2-.75,5.86,5.86,0,0,1-1.2-.45q-.9-.6-2.1-1.5a6,6,0,0,1-1.81-2.1,4.21,4.21,0,0,1-.15-1.95,14.09,14.09,0,0,0,.15-2,70.38,70.38,0,0,1-7.05,8.26,36.53,36.53,0,0,1-8.86,6.45,105.65,105.65,0,0,1-10,5.56,58,58,0,0,1-11.26,4v-.3q9.6-6,19.06-12.46a152.1,152.1,0,0,0,17.86-14.26,11.33,11.33,0,0,1,1.21-1.05,7.88,7.88,0,0,1,1.2-.75,4.88,4.88,0,0,1,2.4,0,6.67,6.67,0,0,1,2.1.9,15.52,15.52,0,0,1,5.1,4.05,46.66,46.66,0,0,1,3.91,5.56,29.8,29.8,0,0,1,3.3,6,44.47,44.47,0,0,0,2.4,5.71v.3q0,.3.3,0c.4-2.6.85-5.21,1.35-7.81s1-5.3,1.35-8.11a20.53,20.53,0,0,1,2.1-7.2"></path><path d="M203.66,261.37h0a15.72,15.72,0,0,1-1.8,8.11q-4.2,6-16.81,7.5a12.8,12.8,0,0,1-3.91,0q-2.4,4.22-3.3,3.91c-.8-.4-.7-2,.3-4.81a11.29,11.29,0,0,1-3.6-3.3q-3.9,3-6.31,3a7.14,7.14,0,0,1-1.95-.45,7.14,7.14,0,0,0-1.95-.45q-1.5,0-3,2.4c-1,1.6-1.8,2.41-2.4,2.41-.4,0-.6-.5-.6-1.51a15.84,15.84,0,0,1,1.5-5.4q2.4-4.8,4.8-4.8a15.94,15.94,0,0,1,2.1.45,12.61,12.61,0,0,0,2.4.45q3.92,0,3.91-3a15.31,15.31,0,0,0-.3-1.81,16.52,16.52,0,0,1,.6-6.3q1.2-2.7,1.8,0,.3,2.1,1.8,7.81.6,3.6,4.5,4.2Q190.16,256,195.25,256q8.42,0,8.41,5.4m-4.2,3.91h0q0-2.41-5.71-2.41-3.6,0-8.4,6.91a33.26,33.26,0,0,0,8.25-1.8q5.86-1.8,5.86-2.7"></path><path class="cls-1" d="M44.45,111.84h0c.49.75,0,2.83-1.32,6.22q-1.08,2.06-2.18-.46a6.49,6.49,0,0,0-4.63-4.23q-4.66-1-5.85,4.62-2.79,10.14-6.38,24,1.56.33,5.25,5.17t3.74,6.16a7.29,7.29,0,0,1-1.63,3.88c-1.08,1.51-1.83,2.22-2.24,2.13A49.93,49.93,0,0,0,15,159.9c-5.06.88-7.67,2.17-7.81,3.88q-.32,58.46-1.37,63.43c-.53,2.49-1.1,3.67-1.73,3.54-.37-.3-.55-1-.53-2.07q.45-12.9.4-37.3-.65-21.58.48-26.88A16.65,16.65,0,0,1,11.49,154a16.92,16.92,0,0,1,10.76-3.25,7.54,7.54,0,0,0-4.4-2.24q-1.87-.39-3.64,1.84c-1.18,1.48-2,2.18-2.39,2.09-.21,0-.21-.58,0-1.62a14,14,0,0,1,3.25-6.14c2.07-2.6,4-3.7,5.9-3.31q.15-2.24-2-8.88-2.54-8-5-10.16c-.76,1.58-1.36,2.32-1.77,2.23-.83-.18-2.69-1.65-5.57-4.43s-4.23-4.58-4.06-5.41q1.79-8.4,4.58-7.81,4.67,1,9.46,7.53a50.32,50.32,0,0,1,7.48,18.48l.06-.31q1.05-5,3.8-16.43,3.74-11.57,9.34-10.38,3.73.8,7.18,6.07"></path><path d="M718.19,172.84h0q0,10.22-7.51,10.21a6.94,6.94,0,0,1-5.1-2.1q-1.2-.9-2.1.6a11.57,11.57,0,0,1-10.21,5.4,7.94,7.94,0,0,1-4.5-1.2q-6-3.6-14.71.3-3.91,2.1-13.21,10.51-5.42,4.5-10.51,9A90.39,90.39,0,0,1,629.92,217q-9.6,3.92-12.91,3.91-.9,0-.9-.6a9.58,9.58,0,0,1,3.31-1.81,102.11,102.11,0,0,0,12.31-5.4,110.5,110.5,0,0,0,25.21-19.21,66,66,0,0,1,19.22-15q7.2-3.91,12.31-.61a8.31,8.31,0,0,0,5.1,1.81q7.5,0,10.21-7.21,1.5-4.5,3.6-4.5.6,0,.3,1.5-.9,3.3-.3,3.9,2.1,2.7,6,1.5,2.7-.6.6-2.4-1.5-.9-.6-2.7,1.8-4.2,2.4-4.2,2.4,0,2.4,6.9"></path><path d="M346.67,191.11h0a10.16,10.16,0,0,1-.79,2.9c-.7,1.58-1.23,2.37-1.58,2.37q-8.18,0-12.79,2.11c-3.07,1.41-4.35,3.52-3.82,6.33q.53,3.69,3.43,14.5A90,90,0,0,1,334.28,242c0,4-.52,6.86-1.58,8.44-.35.53-.7.79-1.05.79-.53,0-.62-.62-.27-1.85.35-.7.62-2.9.79-6.59q.27-5.79-2.37-15.29-5-19.52-5-23.2,0-6.85,4-10,2.89-2.64,9.22-3.69-1.85-2.9-4.21-2.9t-3.7,2.9c-.35,1.06-.61,1.58-.79,1.58-.7,0-1-.7-1-2.11q0-1.58,2.11-5,2.9-4,5.8-4,1,0,5.8,4.61t4.74,5.41"></path><path d="M537.34,185.56h0q0,3.6-5.1,11.41a66.49,66.49,0,0,1-7.81,9.91q-1.5,1.8-2.4,1.8t2.25-5.4a39.66,39.66,0,0,1,5.55-7.81c2.8-3.4,3.71-5.4,2.71-6q.6.3-24,7.5-27,8.11-46.24,8.11-19.51,0-30.62-5.11-5.1-2.4-11.71-8.7-3.9,9.3-12,9.3a26,26,0,0,1-3.6-.3q-5.7-1.2-7.8,1.2-3.62,4.51-4.81,4.21a1,1,0,0,1-.6-.9q0-2.7,4.5-8.41,4.22-5.1,9.61-3.3a11,11,0,0,0,11.41-2.4,2.2,2.2,0,0,0,.6-2.71q-4.8-10.8-4.8-14.41,0-5.7,2.1-5.7,1.2,0,1.8,2.7,2.4,14.41,12.31,20.72,11.1,6.9,34.22,6.9,24.93,0,67.85-15,6.62-2.4,6.61,2.4"></path><path d="M966.68,301.92h0q0,11.7-3.3,13.21-1.2-.6-.9-1.5a19,19,0,0,0,1.8-7.21q0-9-13.21-23.42.3-5.7,2.41-5.7,1.8,0,6.9,6.9,6.3,8.71,6.3,17.72m50.44,7.8h0q0,6.61-10.21,21.92-.9,1.2-1.5.6a2,2,0,0,1,0-2.1,25.1,25.1,0,0,1,4.21-7.81,20,20,0,0,0,3.6-7.5q-37.83,15.3-60,15.31a94.4,94.4,0,0,1-27.63-4.51,17.14,17.14,0,0,1,.3,8.41q-.9,4.2-2.4,4.2-1.2-.3-.9-1.2a9.45,9.45,0,0,0,.9-3.6q0-9.3-9.3-18.91a23.31,23.31,0,0,1,1.8-4.81l3.6,3.91q8.4,9.3,33.93,9.6,19.8.3,55.24-13.51a42.43,42.43,0,0,1,6-2.1q2.4,0,2.4,2.1"></path><path d="M959.42,118.5h0q0,11.7-3.3,13.21-1.2-.6-.9-1.5A19,19,0,0,0,957,123q0-9-13.21-23.42.3-5.7,2.4-5.7,1.8,0,6.91,6.9,6.3,8.72,6.3,17.72m50.44,7.8h0q0,6.62-10.21,21.92-.9,1.2-1.5.6a2,2,0,0,1,0-2.1,25.25,25.25,0,0,1,4.2-7.81,20,20,0,0,0,3.6-7.5q-37.82,15.3-60,15.31a94.34,94.34,0,0,1-27.62-4.51,17.39,17.39,0,0,1,.3,8.41q-.9,4.2-2.4,4.2-1.2-.3-.9-1.2a9.45,9.45,0,0,0,.9-3.6q0-9.3-9.31-18.91a23.53,23.53,0,0,1,1.8-4.81l3.61,3.91q8.4,9.3,33.92,9.6,19.81.3,55.24-13.51a42.3,42.3,0,0,1,6-2.1q2.4,0,2.4,2.1"></path><path d="M678.62,146.44h0q-1.56,7.65-8.62,6.21-2.94-.61-8.23-4.75-16.2,14.76-59.69,23.63a31.21,31.21,0,0,1-4.06.39c-1-.2-1.43-.5-1.35-.89s.53-.6,1.35-.64c2-.62,4.25-1.27,6.84-2q21.06-7,27.78-9.94,17.28-6.57,25.67-13.13a9.06,9.06,0,0,1-5.75-4.86,3.43,3.43,0,0,1,0-1.53q1.08-5.29,7.12-12.33a10.34,10.34,0,0,1-1.23-1.48c-.31-.47.14-1.65,1.35-3.55s2.1-2.79,2.69-2.67q3.53.72,10.14,8.82,7.79,9.87,6,18.69m-3.23-2.19h0q0-1.53-2-5t-2.92-3.67q-2.35-.48-3.68,6c-.08.39.87,1.25,2.84,2.58a16.15,16.15,0,0,0,3.85,2.16q1.77.36,1.71-.87l.24-1.18m-9-7.05h0a5.85,5.85,0,0,0-.84-3.39c-.72-1.47-1.47-2.29-2.26-2.45a4.55,4.55,0,0,0-3.45,1.13,5.06,5.06,0,0,0-2.22,2.61c-.12.59.76,1.54,2.64,2.84a14.84,14.84,0,0,0,3.7,2.14c1.18.24,2-.72,2.43-2.88"></path><path d="M547.9,155h0a27.65,27.65,0,0,1-21.62,9.91q-12.62,0-12.61-8.11,0-7.5,6-14.11.9-.9,10.51-8.71a28.44,28.44,0,0,0-6.9-.9q-6.31,0-8.71,2.1-.9.9-1.5.3-.6-.3,0-1.5,2.1-5.1,5.1-6.9c1.4-.8,4.21-1.2,8.41-1.2q9,0,9,3.3,0,6.9-9.61,14.11-8.72,6-8.71,9.91,0,1.8,3.31,3.45a14.1,14.1,0,0,0,6.3,1.65q11.42,0,19.51-4.8c1-.6,1.71-.8,2.11-.6q.9.3-.6,2.1"></path><path d="M538.07,328.55h0q-2.36,6.17-10.46,8.86-10.8,3.91-22.87-.7a10.67,10.67,0,0,1-4.16-2.55q-5.67-5.37-14.41-5.18-10.26-.06-28.29,5.91a97.64,97.64,0,0,1-12.32,3.65,42.42,42.42,0,0,1-12.37.42c-4-.23-5.8-.82-5.44-1.75.14-.37.75-.57,1.83-.59q3.24,0,12.31-1.08,6.23-1.17,21.4-7.26a77.76,77.76,0,0,1,27.23-5.67q8.93.19,11.09,2.95a11.65,11.65,0,0,0,7.77,4.89c1.09-1.72,4.38-3.9,9.88-6.51q9.4-4.44,13.9-2.73,6.72,2.57,4.91,7.34m-5.88,1.93h0q.75-2-3.74-3.67-4.2-1.62-16.26,4.71,1.86,1,10.71.56c5.91-.32,9-.85,9.29-1.6"></path><path d="M753.24,327.74h0q-9.62,10.5-24.92,10.5-10.82-.3-10.81-7.2,0-3.3,3.3-9.61,3.6-6.9,6.91-9-6-3.9-6-7.5,0-3,4.65-8t8.56-4.95q3.3,0,3.3,4.2a9.2,9.2,0,0,1-.9,3.31q-.9,2.1-1.8,2.1a1.93,1.93,0,0,1-.9-1.2,2.36,2.36,0,0,0-2.4-1.81,7.36,7.36,0,0,0-3,1.21q-2.1,1.2-2.1,2.4,0,3.9,8.4,3.9,1.8,0,5.41-2.7,2.4-2.1,3.9-1.8.9,0-.3,4.8a6.49,6.49,0,0,1-3,2.4q-5.12,1.8-12,8.11-7.51,6.3-7.51,9.31,0,4.5,10.21,4.5,8.4,0,19.51-4.81a3.76,3.76,0,0,1,2.4-.3c.41.41.11,1.11-.89,2.11"></path><path d="M792.2,177.54h0q-9.62,10.52-24.92,10.51-10.81-.3-10.81-7.2,0-3.3,3.3-9.61,3.62-6.9,6.91-9-6-3.9-6-7.5,0-3,4.66-8t8.55-5q3.32,0,3.31,4.2a9.11,9.11,0,0,1-.9,3.3c-.6,1.41-1.21,2.11-1.81,2.11a1.93,1.93,0,0,1-.9-1.21,2.35,2.35,0,0,0-2.4-1.8,7.45,7.45,0,0,0-3,1.2c-1.4.8-2.1,1.61-2.1,2.41q0,3.9,8.4,3.9,1.82,0,5.41-2.7,2.4-2.1,3.9-1.8.9,0-.3,4.8a6.49,6.49,0,0,1-3,2.4q-5.1,1.8-12,8.11Q761,173,761,176q0,4.52,10.21,4.51,8.42,0,19.52-4.81a3.75,3.75,0,0,1,2.4-.3q.6.6-.9,2.1"></path><path d="M1107.81,229.29h0q0,6.9-7.21,11.71-5.4,3.3-17.11,5.7a88.73,88.73,0,0,1-18.91,2.4q-1.2,0-7.21-2.7t-6-3.6q0-.6,7.2-.6a60.74,60.74,0,0,0,13.21-1.2q9.32-6.3,11.11-9.91,5.1-9.3,5.11-13.51c0-4.2-1.51-6.3-4.51-6.3q-2.7,0-5.1,3.9-.9,1.8-.9-.9,0-2.1,2.1-5.41,3-4.5,5.4-4.5,6,0,6,7.51a35.06,35.06,0,0,1-1.5,10.5q-1.2,3-2.11,6,7.21-5.4,9.91-5.4,10.52,0,10.51,6.3m-5.1,3.3h0c0-.4-1-1-2.86-1.65a13.9,13.9,0,0,0-4-1.05q-4.5,0-10.81,4.8-6,4.22-6,6a74.53,74.53,0,0,0,14.86-3.45q8.85-2.87,8.86-4.66"></path><path d="M744.24,105.47h0q0,6.9-7.21,11.7-5.4,3.31-17.11,5.71a88.73,88.73,0,0,1-18.91,2.4c-.8,0-3.21-.9-7.21-2.7s-6-3-6-3.6q0-.6,7.2-.6a60.25,60.25,0,0,0,13.21-1.21q9.31-6.3,11.11-9.9,5.1-9.31,5.1-13.51,0-6.32-4.5-6.31-2.7,0-5.1,3.91-.9,1.8-.9-.9,0-2.11,2.1-5.41,3-4.5,5.4-4.5,6,0,6,7.5a35.08,35.08,0,0,1-1.5,10.51c-.8,2-1.51,4-2.11,6q7.21-5.41,9.91-5.41,10.51,0,10.51,6.31m-5.1,3.3h0c0-.4-1-1-2.86-1.65a13.9,13.9,0,0,0-4-1.05q-4.5,0-10.81,4.8-6,4.2-6,6a74.69,74.69,0,0,0,14.86-3.45q8.85-2.85,8.86-4.65"></path><path d="M858.56,54.39h0q0,6.9-7.2,11.71-5.4,3.3-17.11,5.7a88.81,88.81,0,0,1-18.92,2.4q-1.2,0-7.2-2.7t-6-3.6q0-.6,7.21-.6a60.84,60.84,0,0,0,13.21-1.2q9.3-6.31,11.11-9.91,5.1-9.31,5.1-13.51,0-6.3-4.5-6.3-2.71,0-5.11,3.9-.9,1.8-.9-.9c0-1.4.7-3.21,2.1-5.41,2-3,3.81-4.5,5.41-4.5q6,0,6,7.51a35.06,35.06,0,0,1-1.5,10.5c-.8,2-1.5,4-2.1,6q7.2-5.41,9.91-5.41,10.5,0,10.5,6.31m-5.1,3.3h0q0-.6-2.85-1.65a13.86,13.86,0,0,0-4.06-1q-4.5,0-10.8,4.8-6,4.2-6,6a73.81,73.81,0,0,0,14.86-3.46q8.86-2.85,8.86-4.65"></path><path d="M884.55,225.1h0q0,9.3-3.31,9.31a23.19,23.19,0,0,1-15.61-6,21.15,21.15,0,0,1-4.5,9.31q-4.2,4.8-26.72,14.71-18.61,8.1-22.22,9-15,3.3-26.12,4.8h-1.5q-.6-.3-.3-.6c0-.2.5-.4,1.51-.6q3.9-1.5,20.71-8.11,19.21-7.5,27.92-11.11,21-9.3,26.42-14.41a16.32,16.32,0,0,0,3.9-5.4,31.2,31.2,0,0,1,4.81-8.41q3.6-4.8,6-4.8,3.3,0,6.15,4.2a14.49,14.49,0,0,1,2.86,8.11m-5.11,1.8h0q0-6.6-4.8-6.6-3.9,0-3.9,2.7,0,.6,3.15,2.1a18.66,18.66,0,0,0,5.55,1.8"></path><path d="M902.26,303.91h0q0,9.31-5.4,9.31a34.25,34.25,0,0,1-11.41-2.4q-10.51,7.2-25.22,17.71-3.9,2.7,4.5,2.7,6.62,0,16.37-3.9t11.25-7.8a2,2,0,0,1,.9-1.21c.61-.2.91.1.91.91,0,2-1.31,4.5-3.91,7.5q-9.9,11.41-28.22,11.41-6.6,0-6.6-3.9,0-7.51,4.2-11.71,6-5.7,20.72-13.81-4.82-2.4-4.81-6.31a28.67,28.67,0,0,1,1.05-6q1-4.2.75-4.8a18.69,18.69,0,0,1-.3-2.41q0-5.7,3.6-5.7,4.51,0,12.31,6.6,9.31,7.22,9.31,13.81m-3,1.51h0c0-.6-1.2-2.16-3.6-4.66s-3.91-3.75-4.51-3.75q-1.8,0-1.8,6,0,.9,4.51,2.11,5.4,1.5,5.4.3M887.55,300h0q0-5.1-6.61-5.1-2.7,0-2.7,3.3c0,3.2,2.31,4.8,6.91,4.8q2.4,0,2.4-3"></path><path d="M55.78,291.3h0c0,3.85-1.11,5.77-3.35,5.77a21.33,21.33,0,0,1-7.07-1.49q-6.51,4.47-15.64,11-2.41,1.68,2.8,1.68a28.5,28.5,0,0,0,10.14-2.42c4-1.61,6.36-3.23,7-4.84a1.17,1.17,0,0,1,.56-.74c.37-.13.56.06.56.55,0,1.24-.81,2.8-2.42,4.66q-6.15,7.07-17.5,7.07-4.1,0-4.09-2.42a9.85,9.85,0,0,1,2.6-7.26q3.72-3.54,12.85-8.56c-2-1-3-2.3-3-3.91a17.44,17.44,0,0,1,.65-3.72,8,8,0,0,0,.46-3,11.67,11.67,0,0,1-.18-1.49c0-2.36.74-3.54,2.23-3.54,1.86,0,4.41,1.37,7.63,4.1q5.77,4.47,5.77,8.56m-1.86.93h0c0-.37-.74-1.33-2.23-2.88S49.27,287,48.9,287c-.75,0-1.12,1.24-1.12,3.72,0,.37.93.81,2.79,1.31,2.23.62,3.35.68,3.35.18m-7.26-3.35h0q0-3.17-4.09-3.16c-1.12,0-1.68.68-1.68,2q0,3,4.28,3c1,0,1.49-.62,1.49-1.86"></path><path d="M1068,139.25h0q0,13.32-7.74,13.33-6.87,0-16.34-3.44-15,10.32-36.11,25.37-5.6,3.87,6.45,3.87,9.45,0,23.43-5.59t16.12-11.18a2.77,2.77,0,0,1,1.29-1.72q1.29-.44,1.29,1.29,0,4.29-5.59,10.75-14.17,16.33-40.41,16.34-9.47,0-9.46-5.59,0-10.76,6-16.77,8.6-8.17,29.67-19.78-6.88-3.45-6.88-9a41.19,41.19,0,0,1,1.5-8.6c1-4,1.36-6.31,1.08-6.88a25.85,25.85,0,0,1-.43-3.44q0-8.18,5.16-8.17,6.45,0,17.62,9.46Q1068,129.79,1068,139.25m-4.3,2.15h0q0-1.29-5.16-6.67t-6.45-5.37q-2.58,0-2.58,8.6,0,1.29,6.45,3,7.74,2.15,7.74.43m-16.77-7.74h0q0-7.31-9.45-7.31-3.87,0-3.87,4.73,0,6.87,9.89,6.88,3.43,0,3.43-4.3"></path><path class="cls-1" d="M298.37,231.33h0a25,25,0,0,1,2.4-1.05q1.2-.45,2.1,1.05a5.41,5.41,0,0,1,.75,4.81q-.75,2.7-1.35,5.1a6.46,6.46,0,0,1-1.65-1.65q-.75-1.05-2.25-.15a16.65,16.65,0,0,0-6.61,5.55q-2.7,3.76-5.1,7.36-1.8,3.3-3.61,6.3a18.78,18.78,0,0,0-2.4,6.31q-.3,2.4,3.16,2.85a23.58,23.58,0,0,0,5.85.15,105.3,105.3,0,0,0,15.61-2.4q7.82-1.8,15.61-3.3a30.63,30.63,0,0,1,6-.6,8.78,8.78,0,0,1,5.4,1.8,19.61,19.61,0,0,1,5,5,18,18,0,0,1,2.7,6,11.07,11.07,0,0,1-.15,6,9.92,9.92,0,0,1-3,4.66,11.53,11.53,0,0,1-4.05,1.95q-2,.45-4.35,1.05-11.42,3.3-23.57,5.7t-24.17,3.9a18.21,18.21,0,0,1-6.15-.45,12.89,12.89,0,0,1-5.56-2.85q-2.4-3-4.65-5.85a43.68,43.68,0,0,1-4.05-6.16,70.33,70.33,0,0,1,7.8,3.31,25.47,25.47,0,0,0,7.81,2.4,20,20,0,0,0,8.41.6l8.4-1.2q5.4-1.2,13.06-2.71t14.56-3q6.92-1.5,11.71-2.4t4.5-.9q.6-.3-1.35-3.45t-4.35-3.75a19.58,19.58,0,0,0-11.26-.31,106.8,106.8,0,0,1-11.26,2.41q-6,.9-12.15,2.4a29.08,29.08,0,0,1-12.46.3,27.05,27.05,0,0,1-3.61-1.5,3.74,3.74,0,0,1-2.1-3,29.26,29.26,0,0,1,2.4-15.47,79.77,79.77,0,0,1,7.81-13.66q2.4-3.3,4.8-6a44.79,44.79,0,0,1,5.41-5.11"></path><path class="cls-1" d="M467.16,29.87h0c.8-.4,1.6-.75,2.4-1.06s1.5.05,2.1,1.06a5.38,5.38,0,0,1,.75,4.8q-.75,2.7-1.35,5.1a6.46,6.46,0,0,1-1.65-1.65q-.75-1-2.25-.15a16.67,16.67,0,0,0-6.61,5.56q-2.7,3.75-5.1,7.35-1.8,3.3-3.6,6.31a18.65,18.65,0,0,0-2.4,6.3q-.3,2.4,3.15,2.85a23.58,23.58,0,0,0,5.85.15,105.1,105.1,0,0,0,15.61-2.4q7.81-1.8,15.62-3.3a30.53,30.53,0,0,1,6-.6,8.78,8.78,0,0,1,5.4,1.8,19.45,19.45,0,0,1,5,4.95,18,18,0,0,1,2.7,6,11.07,11.07,0,0,1-.15,6,10,10,0,0,1-3,4.66,11.57,11.57,0,0,1-4.06,2q-1.95.45-4.35,1-11.4,3.3-23.57,5.7t-24.16,3.9a18.51,18.51,0,0,1-6.16-.45,12.8,12.8,0,0,1-5.55-2.85c-1.6-2-3.16-4-4.66-5.85A43.68,43.68,0,0,1,429,80.9a69.43,69.43,0,0,1,7.81,3.31,25.32,25.32,0,0,0,7.8,2.4,20,20,0,0,0,8.41.6l8.4-1.2q5.42-1.2,13.06-2.71t14.56-3q6.92-1.5,11.71-2.4t4.51-.9q.6-.3-1.35-3.45t-4.36-3.76a19.66,19.66,0,0,0-11.26-.3,104.67,104.67,0,0,1-11.25,2.41q-6,.9-12.16,2.4a29.08,29.08,0,0,1-12.46.3,27.49,27.49,0,0,1-3.6-1.5,3.73,3.73,0,0,1-2.11-3,29.15,29.15,0,0,1,2.41-15.46A79.73,79.73,0,0,1,457,41q2.4-3.3,4.8-6a44.68,44.68,0,0,1,5.41-5.1"></path><path class="cls-1" d="M1076.89,257.13h0l2.4,1.2q1.2.6.6,2.1a5.9,5.9,0,0,1-3.45,3.76,40.48,40.48,0,0,0-4.66,2.25,4,4,0,0,1,.15-2.4c.3-.81-.15-1.41-1.35-1.81a17,17,0,0,0-8.4-1.5l-9,.6-7.05,1.2a23.55,23.55,0,0,0-6.46,2.11q-2.1,1.2-.3,4.2a24.93,24.93,0,0,0,3.6,4.8A120.36,120.36,0,0,0,1054.82,284q6.45,5,12.46,10.06a34.16,34.16,0,0,1,4.2,4.35,9.78,9.78,0,0,1,2.11,5.25,17.73,17.73,0,0,1-.76,6.91,19,19,0,0,1-3,5.85,11.85,11.85,0,0,1-4.65,3.76,8.47,8.47,0,0,1-5.4.6,10.22,10.22,0,0,1-4.21-1.8q-1.5-1.2-3.6-2.71-9.62-6.9-19.21-14.71t-18.32-16.21a20.33,20.33,0,0,1-3.6-5,10.86,10.86,0,0,1-1.2-6.16q.6-3.9,1.35-7.35a41.09,41.09,0,0,1,2.25-7.06,73,73,0,0,1,2.4,8.11,26.77,26.77,0,0,0,3,7.5,20.06,20.06,0,0,0,5,7.06l6.15,5.55q4.51,3.61,10.51,8.56t11.56,9.31q5.55,4.35,9.31,7.5t3.45,2.85q.6.3,1.8-3.15t.3-5.55a20.48,20.48,0,0,0-7.06-9,86.94,86.94,0,0,1-8.85-7.2,105.18,105.18,0,0,0-9.61-8,27.35,27.35,0,0,1-8.1-9.46c-.4-1.2-.76-2.45-1.06-3.75a3.84,3.84,0,0,1,.76-3.45,29.7,29.7,0,0,1,13.5-7.81,85.18,85.18,0,0,1,15.62-2.7,69.37,69.37,0,0,1,7.8-.15,35.86,35.86,0,0,1,7.21,1.05"></path><path d="M906,108.14h0l2.4,1.2q1.2.6.6,2.1a5.9,5.9,0,0,1-3.45,3.76,40.3,40.3,0,0,0-4.65,2.25A4,4,0,0,1,901,115q.45-1.2-1.35-1.8a17.08,17.08,0,0,0-8.41-1.5l-9,.6-7,1.2a23.1,23.1,0,0,0-6.46,2.11q-2.1,1.2-.3,4.2a24.94,24.94,0,0,0,3.61,4.8A119.38,119.38,0,0,0,883.9,135q6.45,5,12.45,10.06a33.59,33.59,0,0,1,4.21,4.35,9.77,9.77,0,0,1,2.1,5.25,17.72,17.72,0,0,1-.75,6.91,19,19,0,0,1-3,5.85,11.88,11.88,0,0,1-4.66,3.76,8.47,8.47,0,0,1-5.4.6,10.23,10.23,0,0,1-4.2-1.8q-1.51-1.22-3.61-2.71-9.6-6.9-19.21-14.71t-18.31-16.21a20.1,20.1,0,0,1-3.61-5,10.86,10.86,0,0,1-1.2-6.16q.6-3.9,1.35-7.35a41.09,41.09,0,0,1,2.25-7.06,71,71,0,0,1,2.41,8.11,26.77,26.77,0,0,0,3,7.5,19.91,19.91,0,0,0,4.95,7.06q3.15,2.85,6.16,5.55,4.5,3.6,10.5,8.56t11.56,9.31q5.57,4.35,9.31,7.5t3.45,2.85q.6.3,1.8-3.15t.3-5.55a20.47,20.47,0,0,0-7-9,87.05,87.05,0,0,1-8.86-7.2,103.84,103.84,0,0,0-9.61-8,27.44,27.44,0,0,1-8.1-9.46q-.6-1.8-1-3.75a3.86,3.86,0,0,1,.75-3.45,29.6,29.6,0,0,1,13.51-7.81,85.08,85.08,0,0,1,15.61-2.7,69.5,69.5,0,0,1,7.81-.15,35.76,35.76,0,0,1,7.2,1"></path><path class="cls-1" d="M609.08,270.86h0q0,34.53-18.31,49.84-7.5,6-24,12.91-10.8,4.2-14.11,4.2a1.74,1.74,0,0,1-1.2-.3q-.3-.9,4.81-3.9a123.28,123.28,0,0,0,15-9.61q16.5-12.6,22.51-19.51,10.22-12,10.21-24.32,0-18.62-12.31-38.43-5.7-9-24-30.92-5.7,9.3-16.51,28.22a71.2,71.2,0,0,0-9,34.53q0,7.8,6.91,14.26t14.41,6.45q9,0,15.91-7.5,5.4-6,5.41-10.81,0-5.42-3-7.51-2.7,6.92-8.7,6.91a8.66,8.66,0,0,1-6.76-3.31,11.16,11.16,0,0,1-2.85-7.5,23.8,23.8,0,0,1,3-11.11q3.3-6.9,7.81-6.9a13.31,13.31,0,0,1,12,6.9,26.92,26.92,0,0,1,3.6,14.11q0,16.21-6.6,28.82-7.82,15.31-22.52,15.31-12.32,0-19.52-12.61a44.11,44.11,0,0,1-6-22.21q0-28.53,29.12-70.85-10.2-12-10.21-21,0-8.1,4.21-22.07t8.7-20.56q3.3,3.3,7.21,13.21,4.8,12,4.8,21T574,198.51q18.62,21.62,24.92,32.72a79,79,0,0,1,10.2,39.63M574,180.8h0q0-8.12-9-21-5.4,12.91-5.4,15.91a8.9,8.9,0,0,0,.6,3.31,53.24,53.24,0,0,0,9.61,14.41q4.2-6.61,4.2-12.61"></path><path class="cls-1" d="M154.72,95.52h0q0,6.9-1.5,6.9t-2.1-3.3q-3.6-17.41-21-24.92-14.1-4.5-39.33-15Q68,73.91,65.86,75.4q-13.22,11.11-15,23.42-.9,4.5-2.4,4.5-1.8,0-1.8-3,0-15,10.21-29.42A73.47,73.47,0,0,1,80,49.58q-2.1-5.1-.6-15.61,1.8-13.5,11.1-26.72Q95,.35,95.58.35t2.1,3q2.7,4.8,5.7,9.61,3,6.6,3,16.51,0,10.81-3.31,18,29.43,10.22,35.73,14.41Q154.72,73,154.72,95.52m-15.91,22.23h0q0,11.7-3.9,19.81Q128,152,112.69,162.93t-27.92,11q-14.11,0-20.12-11.41-4.2-7.8-4.2-18.91A69.27,69.27,0,0,1,66.76,115q5.1-11.4,7.8-11.4.3,0,.3.9,0,2.4-3.3,10.2-5.1,12.32-5.1,21.62t5.1,15.31A17.66,17.66,0,0,0,86,158.28q15,0,33-15.31,15.92-13.51,15.92-18t-4.21-10.81a20.33,20.33,0,0,1-4.35,9.61,10.12,10.12,0,0,1-8,3.6,9.8,9.8,0,0,1-7.65-3.6,13.62,13.62,0,0,1-3.15-9.31A34.24,34.24,0,0,1,110,103q5.4-15.92,11.41-15.92,4.8,0,10.5,7.51,6.91,9.3,6.91,23.12M100.38,36.38h0q0-6.62-7.5-16.52-2.11,1.8-5.26,7.66t-3.15,8q0,3.62,8.11,7.51,7.8-3.9,7.8-6.6m24,71.76h0a4.16,4.16,0,0,0-2.1-3.3,3.3,3.3,0,0,0-4.81.6,4.8,4.8,0,0,0-1.2,3q0,3,3.91,3,4.2,0,4.2-3.3"></path><polygon class="cls-1" points="1126.68 0.76 1141.99 9.76 1134.48 22.97 1119.17 13.97 1126.68 0.76"></polygon><polygon class="cls-1" points="458.22 160.07 473.53 169.08 466.02 182.29 450.71 173.28 458.22 160.07"></polygon><polygon points="233.53 118.25 248.84 127.26 241.34 140.47 226.03 131.46 233.53 118.25"></polygon><polygon points="359.94 107.14 375.25 116.15 367.75 129.36 352.44 120.35 359.94 107.14"></polygon><polygon points="353.44 40.73 368.75 49.73 361.25 62.94 345.94 53.94 353.44 40.73"></polygon><polygon points="421.9 95.68 437.21 104.69 429.71 117.9 414.4 108.89 421.9 95.68"></polygon><polygon points="493.21 28.62 508.52 37.63 501.02 50.84 485.71 41.83 493.21 28.62"></polygon><polygon points="551.44 76.27 566.75 85.28 559.25 98.48 543.94 89.48 551.44 76.27"></polygon><polygon points="40.74 164.58 56.05 173.58 48.54 186.79 33.23 177.79 40.74 164.58"></polygon><polygon points="467.8 258.67 483.11 267.68 475.61 280.89 460.3 271.88 467.8 258.67"></polygon><polygon points="505.18 257.33 520.49 266.34 512.98 279.55 497.67 270.54 505.18 257.33"></polygon><polygon points="844.29 200.49 859.61 209.49 852.1 222.7 836.79 213.7 844.29 200.49"></polygon><polygon points="730.27 209.19 745.58 218.19 738.07 231.4 722.76 222.4 730.27 209.19"></polygon><polygon points="735.23 156.74 750.54 165.75 743.04 178.96 727.73 169.95 735.23 156.74"></polygon><polygon points="1019.29 38.18 1034.6 47.19 1027.1 60.4 1011.79 51.39 1019.29 38.18"></polygon><polygon points="974.7 35.96 990.01 44.97 982.5 58.18 967.19 49.17 974.7 35.96"></polygon><polygon points="944.66 219.07 959.98 228.08 952.47 241.29 937.16 232.28 944.66 219.07"></polygon><polygon points="974.7 216.42 990.01 225.43 982.5 238.64 967.19 229.63 974.7 216.42"></polygon><polygon points="467.8 275.9 483.11 284.9 475.61 298.11 460.3 289.11 467.8 275.9"></polygon><polygon points="1075.69 0.76 1091 9.76 1083.49 22.97 1068.18 13.97 1075.69 0.76"></polygon><polygon points="649.85 318.13 663.35 326.07 656.73 337.71 643.23 329.77 649.85 318.13"></polygon><polygon points="424.43 310.94 437.92 318.88 431.31 330.53 417.81 322.59 424.43 310.94"></polygon><polygon points="366.96 318.92 380.46 326.86 373.85 338.5 360.35 330.56 366.96 318.92"></polygon><polygon points="1019.29 0.76 1034.6 9.76 1027.1 22.97 1011.79 13.97 1019.29 0.76"></polygon><polygon points="909.77 0.76 925.08 9.76 917.58 22.97 902.27 13.97 909.77 0.76"></polygon><polygon points="837.85 0.76 853.16 9.76 845.65 22.97 830.34 13.97 837.85 0.76"></polygon><polygon points="819.05 0.76 834.36 9.76 826.86 22.97 811.54 13.97 819.05 0.76"></polygon><polygon points="596.98 0.76 612.29 9.76 604.79 22.97 589.47 13.97 596.98 0.76"></polygon><polygon points="407.57 0.76 422.88 9.76 415.38 22.97 400.07 13.97 407.57 0.76"></polygon><polygon points="273.53 0.76 288.85 9.76 281.34 22.97 266.03 13.97 273.53 0.76"></polygon><polygon points="241.39 0.76 256.7 9.76 249.19 22.97 233.88 13.97 241.39 0.76"></polygon><polygon points="209.24 0.76 224.55 9.76 217.04 22.97 201.73 13.97 209.24 0.76"></polygon><polygon points="177.09 0.76 192.4 9.76 184.9 22.97 169.59 13.97 177.09 0.76"></polygon><polygon points="977.3 155.18 992.61 164.19 985.11 177.4 969.8 168.39 977.3 155.18"></polygon><polygon points="924.96 158.59 940.27 167.6 932.77 180.81 917.46 171.8 924.96 158.59"></polygon><polygon points="1098.8 251 1114.12 260.01 1106.61 273.22 1091.3 264.21 1098.8 251"></polygon><polygon points="1128.45 203.12 1141.83 210.99 1135.27 222.53 1121.89 214.67 1128.45 203.12"></polygon><polygon points="1087.88 295.3 1103.19 304.31 1095.69 317.52 1080.38 308.51 1087.88 295.3"></polygon><polygon points="1093.77 316.11 1109.08 325.12 1101.58 338.33 1086.27 329.32 1093.77 316.11"></polygon><polygon points="52.31 0.76 67.63 9.76 60.12 22.97 44.81 13.97 52.31 0.76"></polygon><polygon points="57.3 261.16 71.97 271.17 63.6 283.85 48.93 273.83 57.3 261.16"></polygon><polygon points="10.34 287.87 23.81 299.45 14.08 311.12 0.61 299.54 10.34 287.87"></polygon><polygon points="43.52 315.44 58.19 325.45 49.81 338.13 35.14 328.11 43.52 315.44"></polygon><polygon points="600.71 20.81 616.02 29.82 608.51 43.03 593.2 34.02 600.71 20.81"></polygon><polygon points="605.18 40.73 620.49 49.73 612.99 62.94 597.68 53.94 605.18 40.73"></polygon><polygon points="768.71 327.61 779.63 315.6 790.04 324.78 779.13 336.79 768.71 327.61"></polygon><polygon points="787.35 328.02 798.26 316.01 808.68 325.19 797.76 337.2 787.35 328.02"></polygon><polygon points="806 327.74 816.91 315.72 827.33 324.9 816.41 336.92 806 327.74"></polygon><polygon points="778.18 0.76 793.5 9.76 785.99 22.97 770.68 13.97 778.18 0.76"></polygon><polygon points="671.7 34.14 687.01 43.15 679.5 56.36 664.19 47.35 671.7 34.14"></polygon><polygon points="209.65 275.9 224.96 284.9 217.45 298.11 202.14 289.11 209.65 275.9"></polygon><polygon points="187.52 169.98 202.83 178.99 195.32 192.2 180.01 183.19 187.52 169.98"></polygon><polygon points="89 181.39 104.31 190.4 96.81 203.61 81.5 194.6 89 181.39"></polygon><polygon points="1131.88 77.46 1141.93 87.58 1131.29 98.43 1119.01 86.17 1129.36 75.24 1119.31 65.13 1129.65 54.2 1142.15 66.83 1131.88 77.46"></polygon><polygon points="923.52 241.85 933.58 251.97 922.94 262.81 910.66 250.55 921.01 239.63 910.95 229.51 921.3 218.59 933.79 231.21 923.52 241.85"></polygon><polygon points="826.86 101.91 836.91 112.03 826.27 122.88 813.99 110.62 824.34 99.69 814.29 89.58 824.63 78.65 837.13 91.28 826.86 101.91"></polygon><polygon points="13.51 260.46 23.56 270.58 12.92 281.43 0.64 269.17 10.99 258.24 0.93 248.12 11.28 237.2 23.78 249.83 13.51 260.46"></polygon><path d="M257.17,26.48l15.31,8.71L265,48.39l-15-9Zm16.21,20.11,15.31,9-7.2,13.21-15-8.71-6,11.11-15.31-8.7,7.2-13.21,15,8.7Z"></path><path d="M353.29,257.18l15.31,8.71-7.5,13.21-15-9Zm16.21,20.11,15.31,9-7.2,13.21-15-8.71-6,11.11-15.31-8.7L348.49,280l15,8.7Z"></path><path d="M855.7,268.14h0q0,7.5-7.5,7.5t-7.51-7.5q0-7.51,7.51-7.51t7.5,7.51"></path><path d="M937.24,292h0q0,7.5-7.51,7.51t-7.5-7.51q0-7.5,7.5-7.51t7.51,7.51"></path><path d="M1037.41,331.44h0q0,6.71-6.69,6.7t-6.7-6.7q0-6.69,6.7-6.69t6.69,6.69"></path><path d="M1037.41,316h0q0,6.69-6.69,6.7T1024,316q0-6.69,6.7-6.69t6.69,6.69"></path><path d="M940.41,118.9h0q0,7.5-7.51,7.51t-7.5-7.51q0-7.5,7.5-7.5t7.51,7.5"></path><path d="M260.24,185h0q0,7.5-7.51,7.5t-7.5-7.5q0-7.51,7.5-7.51t7.51,7.51"></path><path class="cls-1" d="M587.82,117.3h0a31.17,31.17,0,0,1-2.1,11.4q-2.4,6.92-6.3,6.91-3.61,0-7.81-3-7.22-5.72-9.61-6.91-13.8-4.8-27.92-9.91-17.42-6.3-17.41-17.71,0-16.81,17.71-27.32,15.92-9.3,38.73-9.31,14.11,0,14.11,2.71,0,.9-3.9.9a117.71,117.71,0,0,0-37.23,7.2q-21.62,8.11-21.62,17.12,0,8.1,12.91,12.9,11.11,3.31,21.92,6.61a76.58,76.58,0,0,1,13.81,7.51q3-10.52,7.81-10.51,2.4-.3,4.65,3.15a14.78,14.78,0,0,1,2.25,8.26"></path><path d="M127.12,327.11h0a23.33,23.33,0,0,0-4.1,3.48q-1.86,2-3.47,3.84a12.35,12.35,0,0,1-3.85,3,8.31,8.31,0,0,1-5.21.62,7.14,7.14,0,0,1-3.6-1.86,27.15,27.15,0,0,1-2.73-3.23c-.91-1.24-1.82-2.39-2.73-3.47a7.81,7.81,0,0,0-3.85-2.36,14.41,14.41,0,0,0-4.34,3.35q-1.86,2.12-3.6,3.85a17,17,0,0,1-4.1,3,7.89,7.89,0,0,1-5.58.5,9.1,9.1,0,0,1-4.47-2.36,37.9,37.9,0,0,1-3.6-3.85c-1.08-1.32-2.19-2.65-3.35-4a11.36,11.36,0,0,0-4-3A37.88,37.88,0,0,0,70,320.78a7.18,7.18,0,0,1,6-1.61,6.35,6.35,0,0,1,3.6,2.11c.91,1.07,1.87,2.23,2.86,3.47s2,2.4,3,3.48a5.8,5.8,0,0,0,3.72,1.86,13.83,13.83,0,0,0,4-3.35q1.74-2.12,3.35-3.85a14.78,14.78,0,0,1,3.6-2.85,8.47,8.47,0,0,1,5-.87,5.72,5.72,0,0,1,3.84,1.74,36.22,36.22,0,0,1,2.74,3.35,41.68,41.68,0,0,0,3,3.6,7.5,7.5,0,0,0,4.1,2.23,13.56,13.56,0,0,0,4.22-3.23q1.74-2,3.48-3.85a14.42,14.42,0,0,1,3.84-3,8.7,8.7,0,0,1,9.56,1.11,31.5,31.5,0,0,1,4.22,4c1.32,1.48,2.61,3,3.85,4.46a9.44,9.44,0,0,0,3.85,3,16.39,16.39,0,0,1-4.35,3.85,12.47,12.47,0,0,1-4.09,1.86,6.42,6.42,0,0,1-3.48-.49q-3.48-1.5-6.33-6.09t-6.33-4.59"></path><path class="cls-1" d="M962.93,196.68h0a28.24,28.24,0,0,0-4.95,4.2q-2.25,2.4-4.21,4.65a14.8,14.8,0,0,1-4.65,3.61,10.08,10.08,0,0,1-6.3.75,8.67,8.67,0,0,1-4.36-2.25,33,33,0,0,1-3.3-3.91q-1.65-2.25-3.3-4.2a9.46,9.46,0,0,0-4.65-2.85,17.13,17.13,0,0,0-5.26,4q-2.25,2.55-4.35,4.66a20.2,20.2,0,0,1-5,3.6,9.52,9.52,0,0,1-6.75.6,10.93,10.93,0,0,1-5.4-2.85,46.11,46.11,0,0,1-4.36-4.66q-1.95-2.4-4-4.8a13.8,13.8,0,0,0-4.8-3.6,45.81,45.81,0,0,0,6.6-4.66,8.72,8.72,0,0,1,7.21-2,7.71,7.71,0,0,1,4.35,2.55c1.1,1.3,2.25,2.71,3.45,4.21s2.4,2.9,3.6,4.2a7,7,0,0,0,4.51,2.25,16.72,16.72,0,0,0,4.8-4.05q2.1-2.55,4.05-4.66a18.12,18.12,0,0,1,4.36-3.45,10.3,10.3,0,0,1,6-1.05,7,7,0,0,1,4.66,2.1,48.2,48.2,0,0,1,3.3,4.06,48.83,48.83,0,0,0,3.6,4.35,9,9,0,0,0,5,2.7,16.42,16.42,0,0,0,5.11-3.9q2.1-2.4,4.2-4.65a17.47,17.47,0,0,1,4.65-3.61,11,11,0,0,1,6.16-1.05,10.78,10.78,0,0,1,5.4,2.4,38.4,38.4,0,0,1,5.11,4.81q2.4,2.7,4.65,5.4a11.52,11.52,0,0,0,4.65,3.6,19.74,19.74,0,0,1-5.25,4.66,15.31,15.31,0,0,1-4.95,2.25,7.76,7.76,0,0,1-4.21-.6q-4.2-1.8-7.65-7.36t-7.66-5.55"></path><path d="M27.09,93.49h0a6.07,6.07,0,0,1,.29,2.13,44.11,44.11,0,0,1-3.18,5.69A25.56,25.56,0,0,1,19.31,107a22.52,22.52,0,0,0-4.48-4.8L9,97.33a63.29,63.29,0,0,1-5.5-5.12A9.32,9.32,0,0,1,.72,86.84a8.17,8.17,0,0,1,1.16-6.19A28.15,28.15,0,0,1,6.07,75.9a67.13,67.13,0,0,1,5.19-4.28,17.15,17.15,0,0,0,4.53-5.06,9.9,9.9,0,0,0-3.29-4.92c-1.56-1.25-3.17-2.45-4.85-3.59a54.06,54.06,0,0,1-4.51-3.44A6.75,6.75,0,0,1,.87,49.86a8.22,8.22,0,0,1,1-6,21.62,21.62,0,0,1,4-4.46c1.62-1.38,3.35-2.75,5.19-4.13a18.6,18.6,0,0,0,4.52-4.74,6.81,6.81,0,0,0-2.44-4.61,45.19,45.19,0,0,0-4.85-3.59q-2.68-1.72-5-3.45A6.09,6.09,0,0,1,.63,14.39,8.38,8.38,0,0,1,2.84,7.16,46.92,46.92,0,0,0,8.09.31a14.18,14.18,0,0,0,4,4.94c1.78,1.45,3.61,2.86,5.51,4.21a53,53,0,0,1,5.34,4.36A10,10,0,0,1,26,19.2q.93,4.26-.66,7a21.43,21.43,0,0,1-4,4.91q-2.43,2.22-5.2,4.43a18.88,18.88,0,0,0-4.53,5.2,9.39,9.39,0,0,0,3.12,4.77,51.16,51.16,0,0,0,4.69,3.29A38,38,0,0,1,23.93,52a8,8,0,0,1,2.62,4.46,9.83,9.83,0,0,1-.82,6.34,16.51,16.51,0,0,1-4,4.92C20,69.23,18.19,70.66,16.35,72a25.69,25.69,0,0,0-4.86,4.74,19.12,19.12,0,0,0,7.62,8.51,21.78,21.78,0,0,1,8,8.21"></path><path class="cls-1" d="M792.82,206.33h0q-2.12,2.1-15.32,2.11-2.1,0-26.72-3t-30.62-3q-15.92,0-25.52,6.3-7.2,4.82-7.2,9,0,6.91,15.91,12.61,7.8,2.7,29.72,8.11,5.7,1.2,15.31,4.2,3.6-11.11,9.31-11.71,2.4,0,4.8,3.3a13.66,13.66,0,0,1,2.7,8.41,32,32,0,0,1-3.3,13.21q-3.9,8.1-8.1,8.11a12.48,12.48,0,0,1-6.91-2.41,21,21,0,0,0-8.1-4.2q-20.41-5.7-41.13-11.11-18.92-6.6-18.92-15.61,0-8.1,6.91-17.71,10.5-15.31,31.82-15.31,10.2,0,34.83,3.6,25.51,3.9,29.42,3.9,2.4.3,9.9.3c1.41,0,1.81.3,1.21.9"></path><path d="M148.88,259.78h0q-5.7,6.3-11.56,12a85.11,85.11,0,0,1-12.15,9.91c-1.2.8-1.51.8-.9,0q1.5-1.8,2.4-3c.2-.2.85-.95,2-2.26s2.35-2.75,3.75-4.35q2.7-3,6.16-7t6.9-8.71a101.7,101.7,0,0,0,6.16-9.31,24.77,24.77,0,0,0,3.3-8.85q.9-6.61-1.8-10.66t-9.31-3.46a35,35,0,0,0-10.36,3q-5.25,2.4-11.11,4.8a55.7,55.7,0,0,1-12.46,3.45,29.68,29.68,0,0,1-14.41-1.65,21.65,21.65,0,0,0-.6,5.26q0,2.85-.15,5.55a18.93,18.93,0,0,1-.9,4.95,9.38,9.38,0,0,1-2.25,3.76,3.23,3.23,0,0,1-1.8.6,3.69,3.69,0,0,0,.6-1.5q1.8-6.92.3-11.56a26.08,26.08,0,0,0-4.35-8.26,51.27,51.27,0,0,0-6.46-6.75,34.56,34.56,0,0,1-6-6.76q1.5-4.2,3-7.95t3-7.36q1.2,1.5,2.4,3.15c.8,1.1,1.61,2.15,2.41,3.15A35.2,35.2,0,0,0,100,218.2a44,44,0,0,0,19.51.75,39.39,39.39,0,0,0,8-2.4q3.45-1.5,6.75-3.15a62.74,62.74,0,0,1,6.61-2.85,36.81,36.81,0,0,1,7.5-1.81,19,19,0,0,1,9.16.9,13.32,13.32,0,0,1,6,4.66,17.66,17.66,0,0,1,3,7.2,27.15,27.15,0,0,1,.15,8.56,38.64,38.64,0,0,1-6.76,16.06,149.1,149.1,0,0,1-11,13.66"></path><path class="cls-1" d="M488,136.24h0q0,1.2-8.41,3-32.41,7.5-66.05,12.61-2.7.3-17.41,1.5-120.69,10.22-182.83,10.21-24.33,0-34.23-1.8-16.51-3.3-16.51-12.61,0-9,10.21-21.92,6-7.5,21.91-13.81a101.15,101.15,0,0,0,13.51-5.4,56.87,56.87,0,0,0,12.31-8.11q2.4-2.4,14.11-18.31,8.11-11.41,13.81-11.41,3.6,0,6.31,7.51a32,32,0,0,1,2.7,12,41.94,41.94,0,0,1-1.8,11q-1.8,6.47-3,6.46c-.2,0-.81-2.6-1.81-7.81q-2.4-13.52-8.1-13.51-6.61,0-16.81,16.81-9,15.31-32.13,23.72-21.61,8.12-21.61,12.91,0,8.72,47.43,8.71,53.74,0,149.51-6.61,97-6.9,107.78-6.9,11.12,0,11.11,1.8"></path><path d="M411.8,78.6h0a65.17,65.17,0,0,1-3.3,20.12A63.8,63.8,0,0,1,392,125.44q-5.42,5.1-7.21,4.2-.6-.6,2.7-4.5,18-21.31,18-42.63,0-25.83-32.43-48.34a159.72,159.72,0,0,0-19.81-11q-11.72-5.55-12.31-6T340.65,9q.3-7.8.6-8.1,1.5-1.2,27.62,13.81Q411.8,39.88,411.8,78.6"></path><path d="M1141.12,283.93h0q-2.1,11.13-11.91,19.91c-1.71,1.57-2.71,2.15-3,1.74-.42-.31.06-1.29,1.43-2.92q8.61-9.9,9.73-15.88,2.1-11.13-8.87-33.75-4.47-8.29-11.87-23.51-3.64-8-2.8-12.4c.71-3.77,1.3-5.66,1.78-5.69.14-.09,1.23,2.24,3.29,7q1,2.31,7,14.27,9.08,17.66,11.79,24.9,5.49,15,3.36,26.33"></path><path class="cls-1" d="M1117.06,125.06h0q0,27.32-21,54.34-16.52,21-27.92,25.52a141.92,141.92,0,0,1-49.24,8.7q-2.7,0-3-.3-.3-.9,3.9-2.1a171.08,171.08,0,0,0,36.63-15.61Q1079.24,182.09,1094,165q16.5-19.81,16.51-38.43,0-22.52-24.92-57.94A288.26,288.26,0,0,0,1042,19.68q-.6-.6-.9-9.61c-.4-6.2-.4-9.41,0-9.61q.3-.3,9.9,9.61,11.41,11.71,22.52,25.52,43.53,53.14,43.53,89.47"></path><path class="cls-1" d="M856.89,199.41h0q-.9,0-2.1-5.1-2.12-8.72-19.22-24-4.5-4.5-23.42-18-15.6-11.72-18-15.61a39.46,39.46,0,0,1-6-17.42q-16.82-7.5-21.32-18.91-2.1-5.1-3.6-16.81-7.22-5.4-15.31-17.42-1.8-.9-1.8-1.2c0-9.6.29-14.81.9-15.61q.6-.3,8.7,6.31,10.51,8.4,10.21,9-.3.3-3.6-.3c-.8-.2-1.9-.5-3.31-.9q3.32,3.6,18.32,11.41,15.61,8.12,15.61,21.92a43,43,0,0,1-.9,8.4q13.51,4.52,17.41,6.91a22.89,22.89,0,0,1,11.41,14.41,49.65,49.65,0,0,1,1.8,17.41,122.47,122.47,0,0,1,11.11,8.41q16.51,13.82,22.82,31.52a40.4,40.4,0,0,1,1.5,9.61q.3,6-1.2,6m-67.55-95.17h0q-.9-7.5-13.81-14.11a69.06,69.06,0,0,0-7.81-3.9,40.44,40.44,0,0,0,2.1,4.2q4.5,7.81,19.52,13.81m29.42,36.93h0a29,29,0,0,0-2.7-7.21q-4.21-6-12.91-9.3c-.8-.4-3.61-1.4-8.41-3q4.5,6.3,24,19.51"></path><path d="M266.93,333.11h0q-.9,0-2.4-6-2.1-7.82-2.7-9.61-6.61-14.72-21.62-31.22l-33.62-36.63q-21-23.42-31.23-41.73-1.5-.9-3.6-2.1c-.2-.4,0-3,.45-7.66s.95-7,1.35-7q1.2,0,12.76,9.6t11.26,10.51q-.3,1.5-10.21-1.5,6,9.3,26.42,32.12,32.13,35.13,33,36.33Q263,296.78,266.63,313.9q3.9,19.22.3,19.21"></path></g></g></svg>